<svg width="172" height="40" viewBox="0 0 172 40" fill="none" xmlns="http://www.w3.org/2000/svg">
<g clip-path="url(#clip0_555_2015)">
<path d="M18.4524 11.0214L23.7334 12.4659L26.069 9.71939L21.0826 0L14.4995 12.2878L16.3235 14.7698L18.4524 11.0214Z" fill="#3A9923"/>
<path d="M24.2036 14.2664L19.0932 12.8728L16.4837 17.4604L13.8587 13.9002L0 39.7525L42.1807 39.7678L26.8596 11.1487L24.2036 14.2664Z" fill="#3A9923"/>
<path d="M39.3593 8.02563L33.1844 19.5404L44.0151 39.7675L56.3494 39.7726L39.3593 8.02563Z" fill="#3A9923"/>
</g>
<path d="M83.7694 6.4773C83.4689 6.38639 83.206 6.34093 82.9806 6.34093C82.6951 6.34093 82.4698 6.42427 82.3045 6.59093C82.1542 6.74245 82.0791 6.96972 82.0791 7.27275V21.3637C82.0791 21.6667 82.1542 21.9015 82.3045 22.0682C82.4698 22.2197 82.6951 22.2955 82.9806 22.2955C83.221 22.2955 83.484 22.25 83.7694 22.1591V22.7273H78.6985V22.1591C78.999 22.25 79.2619 22.2955 79.4873 22.2955C79.7728 22.2955 79.9906 22.2197 80.1409 22.0682C80.3062 21.9015 80.3888 21.6667 80.3888 21.3637V13.5682H72.0273V21.3637C72.0273 21.6667 72.1024 21.9015 72.2527 22.0682C72.418 22.2197 72.6508 22.2955 72.9513 22.2955C73.1767 22.2955 73.4321 22.25 73.7176 22.1591V22.7273H68.6466V22.1591C68.9321 22.25 69.1951 22.2955 69.4355 22.2955C69.7209 22.2955 69.9388 22.2197 70.0891 22.0682C70.2543 21.9015 70.337 21.6667 70.337 21.3637V7.27275C70.337 6.96972 70.2543 6.74245 70.0891 6.59093C69.9388 6.42427 69.7209 6.34093 69.4355 6.34093C69.1951 6.34093 68.9321 6.38639 68.6466 6.4773V5.90912H73.7176V6.4773C73.4321 6.38639 73.1692 6.34093 72.9288 6.34093C72.6433 6.34093 72.418 6.42427 72.2527 6.59093C72.1024 6.74245 72.0273 6.96972 72.0273 7.27275V13.1137H80.3888V7.27275C80.3888 6.96972 80.3062 6.74245 80.1409 6.59093C79.9906 6.42427 79.7728 6.34093 79.4873 6.34093C79.2619 6.34093 78.999 6.38639 78.6985 6.4773V5.90912H83.7694V6.4773Z" fill="white"/>
<path d="M97.4944 21.8182C97.5996 22.2122 97.87 22.4091 98.3057 22.4091C98.5912 22.4091 98.9668 22.3258 99.4326 22.1591V22.7273H94.001V22.1591C94.4368 22.3106 94.8124 22.3864 95.1279 22.3864C95.4885 22.3864 95.6688 22.2576 95.6688 22C95.6688 21.9243 95.6613 21.8637 95.6463 21.8182L93.6179 15.3409H88.8399C88.299 17.1591 87.7806 18.9773 87.2848 20.7955L87.127 21.3637C87.097 21.4546 87.082 21.5682 87.082 21.7046C87.082 22.144 87.3524 22.3637 87.8933 22.3637C88.1938 22.3637 88.5394 22.2955 88.9301 22.1591V22.7273H84.2197V22.1591C84.5803 22.2955 84.9259 22.3637 85.2564 22.3637C85.7072 22.3637 86.0302 22.1818 86.2255 21.8182C86.3307 21.6061 86.4209 21.3864 86.496 21.1591L91.274 5.45457H92.5812L97.4944 21.8182ZM88.9526 14.9318H93.4827L91.1387 7.4773L88.9526 14.9318ZM92.6037 4.3182C92.4835 4.2273 92.2281 4.04548 91.8374 3.77275C91.4468 3.48487 91.1237 3.20457 90.8683 2.93184C90.6279 2.65911 90.4251 2.35608 90.2598 2.02275C90.1546 1.78032 90.102 1.58336 90.102 1.43184C90.102 1.12881 90.2372 0.977295 90.5077 0.977295C90.688 0.977295 90.8307 1.04548 90.9359 1.18184C91.0561 1.30305 91.1463 1.43942 91.2064 1.59093C91.2815 1.72729 91.3341 1.8182 91.3641 1.86366C91.7848 2.71214 92.2506 3.50002 92.7615 4.2273L92.6037 4.3182Z" fill="white"/>
<path d="M112.848 23.1818C111.451 23.1818 110.173 22.7803 109.016 21.9773C107.875 21.1591 106.965 20.0758 106.289 18.7273C105.628 17.3637 105.298 15.894 105.298 14.3182C105.298 12.7273 105.606 11.2576 106.222 9.90912C106.853 8.54548 107.724 7.46215 108.836 6.65912C109.963 5.85608 111.233 5.45457 112.645 5.45457C113.652 5.45457 114.621 5.7273 115.552 6.27275C116.499 6.81821 117.213 7.41669 117.693 8.06821L118.032 5.84093H118.415V10.9091H117.693C117.693 10.0758 117.498 9.28033 117.107 8.52275C116.717 7.75002 116.123 7.12124 115.327 6.63639C114.546 6.15154 113.577 5.90912 112.42 5.90912C111.383 5.90912 110.466 6.29548 109.67 7.06821C108.874 7.84093 108.265 8.86366 107.844 10.1364C107.424 11.4091 107.213 12.7728 107.213 14.2273C107.213 15.7576 107.409 17.1667 107.799 18.4546C108.19 19.7273 108.814 20.7576 109.67 21.5455C110.541 22.3334 111.638 22.7273 112.961 22.7273C113.922 22.7273 114.749 22.4622 115.44 21.9318C116.131 21.4015 116.649 20.7349 116.995 19.9318C117.355 19.1137 117.536 18.2879 117.536 17.4546C117.536 16.7728 117.483 16.25 117.378 15.8864C117.288 15.5228 117.107 15.3409 116.837 15.3409L115.192 15.3182C114.275 15.3182 113.734 15.3637 113.569 15.4546C113.404 15.5455 113.321 15.7273 113.321 16C113.336 16.2728 113.344 16.4621 113.344 16.5682C113.344 16.9015 113.374 17.1591 113.434 17.3409C113.494 17.5076 113.629 17.5985 113.84 17.6137V17.9091H112.961V14.8864H119.023V20.5C118.753 20.5 118.422 20.6061 118.032 20.8182C117.776 20.9697 117.506 21.144 117.22 21.3409C116.424 21.8864 115.68 22.3334 114.989 22.6819C114.298 23.0152 113.584 23.1818 112.848 23.1818Z" fill="white"/>
<path d="M121.051 22.1591C121.337 22.25 121.6 22.2955 121.84 22.2955C122.126 22.2955 122.343 22.2197 122.494 22.0682C122.659 21.9015 122.742 21.6667 122.742 21.3637V7.27275C122.742 6.96972 122.659 6.74245 122.494 6.59093C122.343 6.42427 122.126 6.34093 121.84 6.34093C121.6 6.34093 121.337 6.38639 121.051 6.4773V5.90912H126.122V6.4773C125.837 6.38639 125.574 6.34093 125.333 6.34093C125.048 6.34093 124.823 6.42427 124.657 6.59093C124.507 6.74245 124.432 6.96972 124.432 7.27275V21.3637C124.432 21.6667 124.507 21.9015 124.657 22.0682C124.823 22.2197 125.048 22.2955 125.333 22.2955C125.574 22.2955 125.837 22.25 126.122 22.1591V22.7273H121.051V22.1591Z" fill="white"/>
<path d="M139.841 21.8182C139.946 22.2122 140.216 22.4091 140.652 22.4091C140.937 22.4091 141.313 22.3258 141.779 22.1591V22.7273H136.347V22.1591C136.783 22.3106 137.159 22.3864 137.474 22.3864C137.835 22.3864 138.015 22.2576 138.015 22C138.015 21.9243 138.008 21.8637 137.993 21.8182L135.964 15.3409H131.186C130.645 17.1591 130.127 18.9773 129.631 20.7955L129.473 21.3637C129.443 21.4546 129.428 21.5682 129.428 21.7046C129.428 22.144 129.699 22.3637 130.24 22.3637C130.54 22.3637 130.886 22.2955 131.276 22.1591V22.7273H126.566V22.1591C126.927 22.2955 127.272 22.3637 127.603 22.3637C128.053 22.3637 128.376 22.1818 128.572 21.8182C128.677 21.6061 128.767 21.3864 128.842 21.1591L133.62 5.45457H134.927L139.841 21.8182ZM131.299 14.9318H135.829L133.485 7.4773L131.299 14.9318Z" fill="white"/>
<path d="M157.134 5.88639V6.45457C156.833 6.36366 156.548 6.3182 156.277 6.3182C155.902 6.3182 155.594 6.40154 155.353 6.56821C155.128 6.73487 155.015 6.96214 155.015 7.25002V23.1818H154.497L144.535 7.56821L144.558 21.3637C144.558 21.6515 144.693 21.8788 144.963 22.0455C145.249 22.2122 145.594 22.2955 146 22.2955C146.316 22.2955 146.616 22.25 146.902 22.1591V22.7273H141.988V22.1591C142.274 22.25 142.559 22.2955 142.845 22.2955C143.205 22.2955 143.491 22.2122 143.701 22.0455C143.927 21.8788 144.039 21.6515 144.039 21.3637V7.27275C144.039 6.98487 143.927 6.7576 143.701 6.59093C143.476 6.42427 143.183 6.34093 142.822 6.34093C142.567 6.34093 142.289 6.38639 141.988 6.4773V5.90912H145.527L154.497 19.6137V7.25002C154.497 6.96214 154.369 6.73487 154.114 6.56821C153.858 6.40154 153.535 6.3182 153.145 6.3182C152.844 6.3182 152.551 6.36366 152.266 6.45457V5.88639H157.134Z" fill="white"/>
<path d="M165.825 23.1818C164.427 23.1818 163.15 22.7803 161.993 21.9773C160.851 21.1591 159.942 20.0758 159.266 18.7273C158.605 17.3637 158.275 15.894 158.275 14.3182C158.275 12.7273 158.583 11.2576 159.199 9.90912C159.83 8.54548 160.701 7.46215 161.813 6.65912C162.94 5.85608 164.209 5.45457 165.622 5.45457C166.629 5.45457 167.598 5.7273 168.529 6.27275C169.476 6.81821 170.189 7.41669 170.67 8.06821L171.008 5.84093H171.391V10.9091H170.67C170.67 10.0758 170.475 9.28033 170.084 8.52275C169.694 7.75002 169.1 7.12124 168.304 6.63639C167.522 6.15154 166.553 5.90912 165.396 5.90912C164.36 5.90912 163.443 6.29548 162.647 7.06821C161.851 7.84093 161.242 8.86366 160.821 10.1364C160.401 11.4091 160.19 12.7728 160.19 14.2273C160.19 15.7576 160.386 17.1667 160.776 18.4546C161.167 19.7273 161.79 20.7576 162.647 21.5455C163.518 22.3334 164.615 22.7273 165.937 22.7273C166.899 22.7273 167.725 22.4622 168.416 21.9318C169.108 21.4015 169.626 20.7349 169.972 19.9318C170.332 19.1137 170.512 18.2879 170.512 17.4546C170.512 16.7728 170.46 16.25 170.355 15.8864C170.265 15.5228 170.084 15.3409 169.814 15.3409L168.169 15.3182C167.252 15.3182 166.711 15.3637 166.546 15.4546C166.381 15.5455 166.298 15.7273 166.298 16C166.313 16.2728 166.32 16.4621 166.32 16.5682C166.32 16.9015 166.351 17.1591 166.411 17.3409C166.471 17.5076 166.606 17.5985 166.816 17.6137V17.9091H165.937V14.8864H172V20.5C171.73 20.5 171.399 20.6061 171.008 20.8182C170.753 20.9697 170.482 21.144 170.197 21.3409C169.401 21.8864 168.657 22.3334 167.966 22.6819C167.275 23.0152 166.561 23.1818 165.825 23.1818Z" fill="white"/>
<path d="M75.5815 31.3637V31.6478C75.3637 31.5796 75.1909 31.5455 75.0632 31.5455C74.8378 31.5455 74.6763 31.6364 74.5786 31.8182C74.526 31.9243 74.4809 32.0341 74.4434 32.1478L72.6629 39.2387V39.25L72.5277 39.7728H71.8628L69.6541 32.0455C69.6165 31.894 69.5414 31.7803 69.4287 31.7046C69.3236 31.6212 69.1883 31.5796 69.023 31.5796C68.8953 31.5796 68.7601 31.6023 68.6174 31.6478V31.3637H71.3332V31.6478C71.1904 31.6023 71.059 31.5796 70.9388 31.5796C70.8186 31.5796 70.7246 31.6061 70.657 31.6591C70.5894 31.7122 70.5556 31.7879 70.5556 31.8864C70.5556 31.9546 70.5631 32.0076 70.5782 32.0455L72.5277 38.7955L74.049 32.3296L74.1278 32.0455C74.1429 32 74.1504 31.9432 74.1504 31.875C74.1504 31.6553 74.0152 31.5455 73.7447 31.5455C73.5944 31.5455 73.4217 31.5796 73.2263 31.6478V31.3637H75.5815Z" fill="white"/>
<path d="M89.3283 39.4887C89.471 39.5341 89.6025 39.5569 89.7227 39.5569C89.8654 39.5569 89.9744 39.519 90.0495 39.4432C90.1321 39.3599 90.1735 39.2425 90.1735 39.0909V32.0455C90.1735 31.894 90.1321 31.7803 90.0495 31.7046C89.9744 31.6212 89.8654 31.5796 89.7227 31.5796C89.6025 31.5796 89.471 31.6023 89.3283 31.6478V31.3637H91.8638V31.6478C91.721 31.6023 91.5896 31.5796 91.4694 31.5796C91.3266 31.5796 91.2139 31.6212 91.1313 31.7046C91.0562 31.7803 91.0186 31.894 91.0186 32.0455V39.0909C91.0186 39.2425 91.0562 39.3599 91.1313 39.4432C91.2139 39.519 91.3266 39.5569 91.4694 39.5569C91.5896 39.5569 91.721 39.5341 91.8638 39.4887V39.7728H89.3283V39.4887Z" fill="white"/>
<path d="M108.966 40C108.418 40 107.978 39.9091 107.648 39.7273C107.325 39.5379 107.043 39.2576 106.803 38.8864L106.645 39.5569H106.42V36.4659H106.724C106.724 37.4963 106.9 38.3106 107.254 38.9091C107.614 39.5076 108.148 39.8069 108.854 39.8069C109.184 39.8069 109.473 39.7159 109.721 39.5341C109.969 39.3447 110.157 39.0985 110.285 38.7955C110.413 38.4925 110.476 38.1705 110.476 37.8296C110.476 37.4129 110.382 37.0682 110.195 36.7955C110.014 36.5152 109.789 36.2955 109.519 36.1364C109.248 35.9773 108.891 35.8031 108.448 35.6137C107.99 35.4167 107.625 35.2387 107.355 35.0796C107.084 34.9129 106.855 34.6932 106.668 34.4205C106.487 34.1402 106.397 33.7879 106.397 33.3637C106.397 32.9394 106.495 32.5569 106.69 32.2159C106.893 31.875 107.163 31.6099 107.501 31.4205C107.847 31.2311 108.234 31.1364 108.662 31.1364C108.925 31.1364 109.184 31.1819 109.44 31.2728C109.703 31.3637 109.924 31.4811 110.105 31.625C110.285 31.7614 110.394 31.8978 110.431 32.0341L110.555 31.1591H110.769V33.4205H110.51C110.51 33.0796 110.45 32.7538 110.33 32.4432C110.21 32.1326 110.022 31.8788 109.766 31.6819C109.519 31.4849 109.211 31.3864 108.842 31.3864C108.369 31.3864 107.982 31.5455 107.682 31.8637C107.389 32.1819 107.242 32.625 107.242 33.1932C107.242 33.519 107.325 33.7955 107.49 34.0228C107.655 34.2425 107.858 34.4243 108.099 34.5682C108.347 34.7122 108.677 34.8788 109.09 35.0682C109.571 35.2879 109.958 35.4925 110.251 35.6819C110.552 35.8637 110.803 36.1137 111.006 36.4319C111.216 36.7425 111.322 37.1326 111.322 37.6023C111.322 37.9811 111.213 38.3599 110.995 38.7387C110.777 39.1099 110.488 39.4129 110.127 39.6478C109.766 39.8826 109.38 40 108.966 40Z" fill="white"/>
<path d="M125.86 39.4887C126.002 39.5341 126.134 39.5569 126.254 39.5569C126.397 39.5569 126.506 39.519 126.581 39.4432C126.663 39.3599 126.705 39.2425 126.705 39.0909V32.0455C126.705 31.894 126.663 31.7803 126.581 31.7046C126.506 31.6212 126.397 31.5796 126.254 31.5796C126.134 31.5796 126.002 31.6023 125.86 31.6478V31.3637H128.395V31.6478C128.252 31.6023 128.121 31.5796 128.001 31.5796C127.858 31.5796 127.745 31.6212 127.663 31.7046C127.588 31.7803 127.55 31.894 127.55 32.0455V39.0909C127.55 39.2425 127.588 39.3599 127.663 39.4432C127.745 39.519 127.858 39.5569 128.001 39.5569C128.121 39.5569 128.252 39.5341 128.395 39.4887V39.7728H125.86V39.4887Z" fill="white"/>
<path d="M146.613 40C145.855 40 145.197 39.7993 144.641 39.3978C144.085 38.9887 143.661 38.4432 143.368 37.7614C143.082 37.0796 142.936 36.3296 142.928 35.5114C142.921 34.8675 143.037 34.2122 143.278 33.5455C143.518 32.8712 143.905 32.3031 144.438 31.8409C144.972 31.3712 145.659 31.1364 146.501 31.1364C147.35 31.1364 148.044 31.3599 148.585 31.8069C149.134 32.2462 149.528 32.7993 149.769 33.4659C150.017 34.1326 150.14 34.8144 150.14 35.5114C150.14 36.3372 150.009 37.0909 149.746 37.7728C149.483 38.447 149.085 38.9887 148.552 39.3978C148.026 39.7993 147.38 40 146.613 40ZM146.613 39.7728C147.522 39.7728 148.18 39.3788 148.585 38.5909C148.999 37.7955 149.201 36.769 149.194 35.5114C149.186 34.8599 149.085 34.2159 148.89 33.5796C148.702 32.9432 148.405 32.4167 147.999 32C147.601 31.5758 147.102 31.3637 146.501 31.3637C145.892 31.3637 145.393 31.5947 145.002 32.0569C144.611 32.5114 144.326 33.0682 144.145 33.7273C143.973 34.3864 143.886 35.0228 143.886 35.6364C143.886 36.4091 143.984 37.1061 144.179 37.7273C144.382 38.3485 144.686 38.8447 145.092 39.2159C145.505 39.5872 146.012 39.7728 146.613 39.7728Z" fill="white"/>
<path d="M171.915 31.3523V31.6364C171.764 31.5909 171.622 31.5682 171.486 31.5682C171.299 31.5682 171.145 31.6099 171.024 31.6932C170.912 31.7766 170.855 31.8902 170.855 32.0341V40H170.596L165.615 32.1932L165.627 39.0909C165.627 39.2349 165.694 39.3485 165.829 39.4319C165.972 39.5152 166.145 39.5569 166.348 39.5569C166.505 39.5569 166.656 39.5341 166.798 39.4887V39.7728H164.342V39.4887C164.485 39.5341 164.627 39.5569 164.77 39.5569C164.95 39.5569 165.093 39.5152 165.198 39.4319C165.311 39.3485 165.367 39.2349 165.367 39.0909V32.0455C165.367 31.9015 165.311 31.7879 165.198 31.7046C165.086 31.6212 164.939 31.5796 164.759 31.5796C164.631 31.5796 164.492 31.6023 164.342 31.6478V31.3637H166.111L170.596 38.2159V32.0341C170.596 31.8902 170.532 31.7766 170.405 31.6932C170.277 31.6099 170.115 31.5682 169.92 31.5682C169.77 31.5682 169.623 31.5909 169.48 31.6364V31.3523H171.915Z" fill="white"/>
<defs>
<clipPath id="clip0_555_2015">
<rect width="56.3443" height="39.7727" fill="white"/>
</clipPath>
</defs>
</svg>
