<svg width="24" height="24" viewBox="0 0 24 24" fill="none" xmlns="http://www.w3.org/2000/svg">
<g clip-path="url(#clip0_52_976)">
<path d="M4.66992 17.209C5.25392 18.029 5.96992 18.746 6.79092 19.33" stroke="#3A9923" stroke-width="1.5" stroke-linecap="round" stroke-linejoin="round"/>
<path d="M3.13501 10.5C2.955 11.4919 2.955 12.5081 3.13501 13.5" stroke="#3A9923" stroke-width="1.5" stroke-linecap="round" stroke-linejoin="round"/>
<path d="M4.66992 6.79101C5.2537 5.9704 5.97059 5.25317 6.79092 4.66901" stroke="#3A9923" stroke-width="1.5" stroke-linecap="round" stroke-linejoin="round"/>
<path d="M10.5 20.865C11.7937 21.0916 13.1213 21.0324 14.3896 20.6914C15.6579 20.3504 16.8363 19.736 17.8419 18.8912C18.8475 18.0464 19.6561 16.9918 20.2108 15.8013C20.7655 14.6108 21.053 13.3134 21.053 12C21.053 10.6866 20.7655 9.38917 20.2108 8.1987C19.6561 7.00823 18.8475 5.95359 17.8419 5.10881C16.8363 4.26404 15.6579 3.64959 14.3896 3.30861C13.1213 2.96763 11.7937 2.90837 10.5 3.135" stroke="#3A9923" stroke-width="1.5" stroke-linecap="round" stroke-linejoin="round"/>
<path d="M14.5123 10.707L11.3733 13.846L9.48633 11.965" stroke="#3A9923" stroke-width="1.5" stroke-linecap="round" stroke-linejoin="round"/>
</g>
<defs>
<clipPath id="clip0_52_976">
<rect width="24" height="24" fill="white"/>
</clipPath>
</defs>
</svg>
