<svg width="180" height="42" viewBox="0 0 180 42" fill="none" xmlns="http://www.w3.org/2000/svg">
<g clip-path="url(#clip0_83_1322)">
<path d="M76.3495 36.2389C76.3611 36.1837 76.3769 36.1295 76.3968 36.0769C76.5275 35.7971 76.6764 35.5265 76.8424 35.2672C77.083 34.8947 77.3038 34.5061 77.5444 34.1295C77.7218 33.8502 77.915 33.583 78.0964 33.3198C78.3366 32.9717 78.5376 32.5969 78.6959 32.2024C78.8023 31.9352 78.9246 31.6761 79.0389 31.4129C79.2201 31.0041 79.445 30.6171 79.7093 30.2591C80.0248 29.8299 80.3324 29.3927 80.64 28.9514C80.8217 28.6881 81.0642 28.4752 81.3459 28.332C81.476 28.2631 81.6101 28.1943 81.7402 28.1134C82.054 27.9138 82.3958 27.7649 82.7537 27.6721C83.361 27.5061 83.9762 27.3806 84.5914 27.2672C84.8994 27.2043 85.1936 27.0835 85.4589 26.9109C85.7219 26.7547 85.9961 26.6194 86.2792 26.5061C86.4921 26.4089 86.709 26.3117 86.9298 26.2227C87.1507 26.1336 87.2611 26.085 87.4307 26.0243C87.8842 25.8583 88.3416 25.7004 88.7911 25.5344C88.9726 25.4656 89.1461 25.3846 89.3196 25.3077C89.4252 25.2662 89.515 25.1909 89.5759 25.0931C89.6627 24.9595 89.7691 24.838 89.848 24.6882C89.9555 24.5133 90.0885 24.3563 90.2424 24.2227C90.3537 24.1065 90.4927 24.0222 90.6456 23.9782C90.7985 23.9341 90.9599 23.9319 91.1139 23.9716C91.2945 24.0162 91.4834 24.0116 91.6618 23.9584C91.8402 23.9051 92.002 23.8051 92.1313 23.668C92.2496 23.5668 92.3521 23.4413 92.4783 23.3401C92.6472 23.2083 92.8251 23.0892 93.0107 22.9838C93.5817 22.6413 94.1298 22.2599 94.6512 21.8421C94.8089 21.7166 94.9785 21.5992 95.1401 21.4818C95.2264 21.4266 95.3082 21.3643 95.3846 21.2955C95.6979 20.9664 96.0473 20.6757 96.4257 20.4291C96.5026 20.3806 96.5739 20.3236 96.6387 20.2591C96.8831 20.0253 97.147 19.814 97.4274 19.6275C97.6527 19.4568 97.8555 19.2567 98.0307 19.0324C98.1096 18.9312 98.1924 18.8421 98.2752 18.7449C98.3282 18.6926 98.3702 18.6297 98.3987 18.56C98.4272 18.4904 98.4415 18.4156 98.4408 18.3401C98.4053 18.2753 98.3541 18.1862 98.3107 18.0931C98.2296 17.9415 98.1809 17.7739 98.168 17.6014C98.1551 17.429 98.1782 17.2557 98.2358 17.0931C98.246 17.0589 98.2606 17.0262 98.2792 16.9959C98.4356 16.7325 98.5676 16.4547 98.6735 16.166C98.8137 15.8894 98.9096 15.5913 98.9574 15.2834C99.0281 14.93 98.9924 14.5628 98.8549 14.2308C98.8105 14.1248 98.7381 14.0336 98.6459 13.9676C98.5237 13.8866 98.4014 13.8097 98.2831 13.7206C98.1826 13.6473 98.0889 13.5646 98.0031 13.4737C97.8296 13.2955 97.6719 13.1012 97.4984 12.919C97.3894 12.8109 97.3028 12.6813 97.2438 12.538C97.1849 12.3947 97.1547 12.2406 97.1553 12.085C97.1501 11.9821 97.1328 11.8801 97.104 11.7814C96.9226 11.1781 96.7767 10.5668 96.6268 9.9514C96.5778 9.75131 96.5186 9.55401 96.4494 9.36031C96.3477 9.11483 96.2003 8.89205 96.0156 8.70444C95.87 8.52208 95.7381 8.32853 95.6213 8.1255C95.4872 7.92711 95.3255 7.74898 95.1993 7.54655C94.9485 7.19178 94.6404 6.88369 94.2884 6.63562C94.1208 6.51993 93.9392 6.42737 93.7481 6.36031C93.6259 6.30363 93.4957 6.26719 93.3538 6.22266C93.0641 6.10972 92.7969 5.94374 92.5651 5.73278C92.3988 5.5816 92.2646 5.39694 92.1707 5.19027C92.0603 4.96355 91.9578 4.73278 91.8631 4.49797C91.7606 4.22973 91.6197 3.97866 91.4451 3.75303C91.1511 3.40923 90.7467 3.18513 90.3055 3.12145C90.2096 3.17888 90.1335 3.2654 90.0876 3.36909C90.0417 3.47277 90.0283 3.58853 90.0491 3.70039C90.059 3.8269 90.0829 3.95185 90.1201 4.07286C90.1567 4.20476 90.1779 4.34067 90.1832 4.47772C90.2261 4.92396 90.331 5.36159 90.4947 5.77732C90.7052 6.2612 90.9887 6.70798 91.3347 7.1012C91.4924 7.29553 91.6423 7.50606 91.7921 7.69634C91.9625 7.94438 92.0954 8.21735 92.1865 8.50606C92.3242 8.85761 92.4273 9.22246 92.4941 9.59513C92.5473 9.93709 92.5473 10.2856 92.4941 10.6275C92.4626 10.8328 92.4178 11.0357 92.36 11.2348C92.36 11.1822 92.36 11.1255 92.3403 11.0688C92.3206 11.0121 92.3403 10.9109 92.3127 10.8299C92.2851 10.749 92.2772 10.6963 92.2693 10.6316C92.218 10.3117 92.1786 9.99189 92.1116 9.68015C92.0522 9.38605 91.9484 9.10329 91.804 8.84209C91.7566 8.76517 91.7251 8.68015 91.6817 8.59918C91.5019 8.25436 91.2612 7.94685 90.9719 7.6923C90.4961 7.28562 90.1125 6.77714 89.848 6.20242C89.7258 5.93116 89.6075 5.65586 89.497 5.3927C89.3866 5.12954 89.1973 4.74898 89.0396 4.43319C88.9292 4.21861 88.8069 4.02833 88.6807 3.80566C88.6112 3.68826 88.5321 3.57719 88.4441 3.47367C88.1957 3.21051 87.9354 2.95141 87.6791 2.69634C87.6393 2.65559 87.5957 2.61898 87.549 2.58703C87.3176 2.4242 87.1035 2.23694 86.9101 2.02833C86.7179 1.85268 86.5045 1.70302 86.2752 1.58298C86.2332 1.5523 86.1829 1.53582 86.1313 1.53582C86.0797 1.53582 86.0294 1.5523 85.9873 1.58298C85.8586 1.67399 85.7373 1.77554 85.6245 1.88663C85.5702 1.94554 85.5357 2.02072 85.526 2.1012C85.4747 2.57084 85.3288 3.02023 85.246 3.48177C85.1383 3.93056 85.1602 4.40183 85.3091 4.83805C85.4313 5.2083 85.521 5.58903 85.5772 5.9757C85.5871 6.09153 85.5871 6.20804 85.5772 6.32387C85.4983 6.32387 85.5338 6.251 85.5062 6.21456C85.4736 6.16981 85.4446 6.12242 85.4195 6.07286C85.3406 5.91902 85.2696 5.76112 85.1868 5.61537C85.0575 5.38573 84.9429 5.14772 84.8437 4.90282C84.7288 4.62736 84.6659 4.33196 84.6584 4.03238C84.6584 3.79351 84.6584 3.5506 84.6584 3.30768C84.6706 3.04039 84.5832 2.77837 84.4139 2.57489C84.3705 2.52226 84.339 2.45748 84.2956 2.4089C84.2328 2.34312 84.1641 2.28348 84.0905 2.23076C84.0306 2.19522 83.9626 2.17652 83.8934 2.17652C83.8241 2.17652 83.7561 2.19522 83.6962 2.23076C83.3782 2.39947 83.0859 2.61497 82.8286 2.87043C82.2213 3.41699 81.6219 3.97165 81.0501 4.55869C80.9512 4.65087 80.8443 4.73353 80.7307 4.80566C80.5766 4.90192 80.4426 5.0285 80.3363 5.17812C80.1747 5.41294 80.0051 5.64371 79.8237 5.86234C79.6828 6.04129 79.5198 6.20054 79.3386 6.33602C78.9885 6.5935 78.7373 6.96884 78.6288 7.39675C78.5907 7.55234 78.5644 7.7107 78.5499 7.87043C78.5105 8.26022 78.4162 8.64207 78.27 9.00404C78.1872 9.20611 78.1379 9.42094 78.1241 9.63966C78.0989 9.9126 78.0541 10.1832 77.99 10.4494C77.961 10.5824 77.9451 10.718 77.9426 10.8542C77.9426 11.0243 77.9426 11.1984 77.9426 11.3725C77.9035 12.2762 77.5543 13.1367 76.9568 13.8016C76.6965 14.1012 76.4441 14.4089 76.1681 14.7125C75.9784 14.9422 75.7483 15.1331 75.4898 15.2753C75.3005 15.3765 75.0955 15.4737 74.9141 15.5627C74.2262 15.8608 73.5662 16.2226 72.9423 16.6437C72.6265 16.8532 72.3577 17.1292 72.1536 17.4534C72.0353 17.6478 71.8894 17.8219 71.7593 18.0121C71.6291 18.2024 71.5739 18.2996 71.4832 18.4413L71.3452 18.6518C71.3345 18.5699 71.3345 18.4868 71.3452 18.4048C71.428 18.1903 71.4714 17.9636 71.5424 17.749C71.6956 17.1643 72.0376 16.6505 72.5125 16.2915C72.9129 15.9897 73.3347 15.719 73.7744 15.4818C74.1687 15.2874 74.5631 15.0769 74.9338 14.8542C75.1852 14.7236 75.4028 14.5335 75.5687 14.2996C75.8031 13.9632 76.06 13.6439 76.3377 13.3441C76.5051 13.1577 76.6459 12.9478 76.7557 12.7206C76.809 12.6195 76.84 12.5075 76.8464 12.3927C76.8464 12.2874 76.874 12.1862 76.8819 12.085C76.8981 11.9942 76.9047 11.9019 76.9016 11.8097C76.892 11.466 76.8484 11.1241 76.7714 10.7895C76.7063 10.5328 76.6273 10.28 76.5348 10.0324C76.5 9.91008 76.4376 9.79795 76.3526 9.70509C76.2677 9.61223 76.1625 9.54127 76.0458 9.49796C75.8351 9.47408 75.6219 9.50614 75.4267 9.59108C75.0785 9.67788 74.735 9.78329 74.3975 9.90687C73.8166 10.0876 73.2671 10.3608 72.7688 10.7166C72.6268 10.8299 72.4928 10.9555 72.3745 11.0729C72.2646 11.1732 72.1851 11.3039 72.1457 11.4494C72.0984 11.5911 72.055 11.7328 72.0156 11.8785C71.9927 11.9788 71.9637 12.0775 71.9288 12.1741C71.7523 12.5776 71.6302 13.0039 71.566 13.4413C71.5461 13.5839 71.4963 13.7203 71.4201 13.8413C71.3438 13.9622 71.243 14.0647 71.1244 14.1417C70.8149 14.3688 70.4893 14.5718 70.1503 14.749C69.9596 14.8423 69.7739 14.9464 69.5943 15.0607C69.1466 15.3493 68.6353 15.5178 68.1076 15.5506H67.9065L67.3386 15.6073L66.8378 15.6356C66.7708 15.6396 66.7037 15.6396 66.6367 15.6356C66.3551 15.6012 66.0705 15.6012 65.7889 15.6356C65.7455 15.7004 65.6942 15.7611 65.6548 15.8259C65.5601 15.9838 65.4734 16.1457 65.3787 16.2996C65.226 16.5704 65.0106 16.7984 64.7517 16.9636C64.6045 17.0575 64.4932 17.2004 64.4362 17.3684C64.222 18.012 63.8974 18.6112 63.478 19.1376C63.3124 19.3401 63.127 19.5425 62.9535 19.7166C62.8825 19.6721 62.918 19.6356 62.9535 19.5992C63.0893 19.3222 63.1938 19.0301 63.265 18.7287C63.312 18.5872 63.3742 18.4514 63.4504 18.3239C63.5013 18.2355 63.5461 18.1435 63.5844 18.0486C63.683 17.7328 63.7698 17.4129 63.8684 17.0931C63.9196 16.9433 63.9867 16.7976 64.0458 16.6478C64.0668 16.6093 64.0728 16.564 64.0625 16.5212C64.0523 16.4784 64.0266 16.4411 63.9906 16.417H63.6633C63.4353 16.5021 63.2233 16.6267 63.0363 16.7854C62.6183 17.0972 62.1924 17.4008 61.7626 17.6882C61.282 18.0079 60.8365 18.3798 60.4336 18.7976C60.2595 18.9932 60.0472 19.1491 59.8105 19.2551C59.6166 19.3451 59.4382 19.4668 59.2821 19.6154C58.9841 19.8771 58.6692 20.1178 58.3396 20.336C57.9729 20.5749 57.6298 20.8542 57.267 21.1093C56.7919 21.4341 56.2995 21.7314 55.7921 22C55.3071 22.2672 54.8102 22.5101 54.3212 22.7652C54.0783 22.8844 53.828 22.9872 53.572 23.0729C53.2733 23.1732 52.9924 23.3222 52.7399 23.5142C52.2903 23.8745 51.8053 24.1862 51.3202 24.502C50.9535 24.7409 50.5749 24.9676 50.1963 25.1903C49.9975 25.298 49.7935 25.3953 49.5851 25.4818C49.3036 25.5971 49.0475 25.7692 48.8319 25.9878C48.5361 26.3036 48.2364 26.6154 47.9328 26.9271C47.5384 27.332 47.1441 27.7368 46.7497 28.1417C46.4461 28.4291 46.1148 28.6842 45.7836 28.9514C45.5352 29.1457 45.267 29.3158 44.9949 29.498C44.9929 29.4281 45.0169 29.3601 45.0619 29.3077C45.2709 29.0405 45.4839 28.7733 45.6811 28.498C45.7714 28.3809 45.8746 28.275 45.9887 28.1822C46.4972 27.7302 46.9645 27.2315 47.3846 26.6923C47.6922 26.2874 48.0235 25.9271 48.3429 25.5425C48.5922 25.2449 48.9054 25.0107 49.2578 24.8583C49.5874 24.7276 49.8898 24.5339 50.149 24.2874C50.1175 24.2874 50.0938 24.2429 50.0702 24.2429C49.9029 24.2307 49.7348 24.2388 49.5693 24.2672C49.4057 24.3007 49.2393 24.3183 49.0725 24.3198H48.7688C48.1629 24.3175 47.5643 24.4559 47.0179 24.7247C46.7813 24.834 46.5526 24.9555 46.3081 25.0445C46.0393 25.1572 45.7881 25.31 45.5628 25.498C45.334 25.668 45.1053 25.834 44.8727 25.9878C44.7684 26.0559 44.6557 26.109 44.5375 26.1457C43.8513 26.3644 43.1888 26.6437 42.5184 26.8988C42.0662 27.0695 41.6338 27.2908 41.2289 27.5587L40.6452 27.9636C40.369 28.1606 40.079 28.3365 39.7777 28.4899C39.6081 28.5749 39.4425 28.6761 39.2769 28.7692C38.8182 29.0105 38.339 29.2083 37.8454 29.3603C37.4735 29.4823 37.0941 29.5783 36.7097 29.6478C36.3902 29.7044 36.0866 29.8259 35.7672 29.8907C35.6015 30 35.3965 29.9676 35.223 30.0526C34.9745 30.0526 34.7537 30.1984 34.5013 30.2024C34.4067 30.2024 34.3199 30.2874 34.2134 30.2672C34.3369 30.1516 34.493 30.0793 34.659 30.0607C35.1559 29.919 35.6489 29.7773 36.1339 29.5992C36.3942 29.5061 36.6702 29.4494 36.9226 29.3725C37.7294 29.1622 38.5052 28.8422 39.2295 28.421C39.6239 28.1781 40.0182 27.9555 40.4126 27.6802C40.7044 27.4696 41.0041 27.2753 41.3038 27.0648C41.6574 26.8417 42.0328 26.6572 42.4238 26.5142C42.9325 26.3036 43.4451 26.1093 43.942 25.8623C44.2351 25.7161 44.5082 25.531 44.7543 25.3117C44.9042 25.1741 45.0619 25.0445 45.2157 24.9069C45.5236 24.6579 45.865 24.4561 46.2292 24.3077C46.3515 24.251 46.4816 24.2024 46.5999 24.1417C46.9736 23.9435 47.3715 23.7978 47.7829 23.7085C48.0358 23.661 48.2913 23.6299 48.548 23.6154C48.7373 23.6154 48.9423 23.6154 49.1198 23.6154C49.2975 23.6006 49.474 23.5735 49.6482 23.5344C49.8469 23.4955 50.0494 23.4805 50.2516 23.4899C50.498 23.4976 50.744 23.4662 50.9811 23.3967C51.3325 23.3239 51.6759 23.2154 52.0064 23.0729L52.2193 22.9676L53.3354 22.4089L54.4238 21.8583C54.755 21.6923 55.0823 21.5101 55.4175 21.3522C55.9611 21.0777 56.4686 20.7336 56.9279 20.3279C57.3498 19.9676 57.7678 19.5992 58.1898 19.2429C58.4869 18.9575 58.8556 18.7627 59.2545 18.6802C59.3544 18.664 59.453 18.6518 59.5503 18.6437C59.6291 18.6437 59.708 18.6437 59.8145 18.6437C59.8894 18.5587 59.9683 18.4575 60.0511 18.3684C60.4663 17.9033 60.9381 17.4951 61.455 17.1538C61.6167 17.0526 61.7902 16.9676 61.9558 16.8704C62.4842 16.5668 63.0126 16.2631 63.5332 15.9514C63.754 15.8218 63.963 15.6599 64.176 15.5182C64.7113 15.1761 65.3104 14.9527 65.9348 14.8623C66.0345 14.8543 66.1347 14.8543 66.2345 14.8623H67.7488C68.0861 14.8533 68.42 14.7905 68.7386 14.6761C69.0462 14.5749 69.3459 14.4534 69.6929 14.3239C69.7363 14.2631 69.8073 14.1741 69.8664 14.081C69.9256 13.9878 69.9571 13.9231 70.0044 13.8421C70.1034 13.6632 70.2554 13.5214 70.4382 13.4372C70.478 13.4173 70.5162 13.3943 70.5526 13.3684C70.6887 13.1423 70.7948 12.8986 70.868 12.6437C70.9903 12.2389 71.1007 11.834 71.2151 11.4291C71.2387 11.3401 71.2703 11.255 71.29 11.1943C71.3854 11.0459 71.5231 10.9313 71.6844 10.8664C71.9052 10.5951 72.0787 10.3482 72.3035 10.1255C72.5918 9.83515 72.92 9.58964 73.2775 9.39675C73.4259 9.31715 73.5836 9.25729 73.7468 9.21861C74.066 9.11898 74.3914 9.04187 74.7208 8.98784C75.1664 8.93116 75.616 8.93926 76.0616 8.91902C76.31 8.91902 76.5545 8.87853 76.799 8.84614C76.9003 8.84253 76.9963 8.79904 77.0672 8.72468C77.0672 8.72468 77.0672 8.72468 77.0672 8.6923C77.1997 8.11873 77.4236 7.57157 77.7297 7.07286C77.8441 6.83804 77.99 6.61942 78.1241 6.3927C78.2577 6.1413 78.4419 5.92189 78.6643 5.74898C78.9692 5.50524 79.2352 5.21432 79.453 4.88663C79.5634 4.72873 79.6778 4.57084 79.8 4.42104C79.8888 4.30218 80.0002 4.20302 80.1273 4.12954C80.2772 4.04857 80.4231 3.9676 80.569 3.87853C80.7149 3.78946 80.7977 3.73683 80.9081 3.65586C81.0186 3.57489 81.2 3.43724 81.3459 3.33602C81.4788 3.25024 81.5876 3.1302 81.6614 2.98784C81.8272 2.6859 81.9256 2.34984 81.9492 2.00404C81.956 1.87765 81.9339 1.75139 81.8846 1.63538C81.8353 1.51936 81.7602 1.41684 81.6653 1.33602C81.5526 1.32378 81.4389 1.32378 81.3262 1.33602C81.1268 1.36964 80.9247 1.3832 80.7228 1.37651H78.6682C78.422 1.38194 78.176 1.35885 77.9348 1.30768C77.418 1.20176 76.9187 1.02043 76.452 0.769218C76.2685 0.656358 76.0512 0.616055 75.8408 0.655859C75.5103 0.718323 75.1953 0.847694 74.9141 1.03643C74.6118 1.2364 74.2803 1.38538 73.9321 1.47772C73.7705 1.51821 73.6088 1.56274 73.4431 1.58703C73.1418 1.62949 72.855 1.74617 72.6071 1.92711C72.3501 2.11136 72.1063 2.31431 71.8776 2.5344C71.5936 2.81375 71.3058 3.08906 71.0179 3.34412C70.8485 3.51068 70.7002 3.69838 70.5762 3.90282C70.3988 4.18218 70.2055 4.45343 70.0202 4.71254C69.9016 4.88013 69.7609 5.03 69.6022 5.15788C69.5068 5.2389 69.416 5.32541 69.3301 5.41699L68.7386 6.07691C68.5572 6.28339 68.3837 6.48177 68.1983 6.6923C67.8553 7.05592 67.4876 7.39415 67.0981 7.70444C66.8536 7.90687 66.613 8.1093 66.3607 8.30363C66.0168 8.58549 65.6357 8.81586 65.2289 8.98784C65.1697 8.92307 65.2289 8.89473 65.2565 8.87853C65.458 8.73108 65.6443 8.56286 65.8125 8.37651C65.9584 8.23481 66.1162 8.1093 66.266 7.97165C66.4829 7.77327 66.7077 7.56679 66.9088 7.36436C67.1707 7.08078 67.4182 6.78349 67.6502 6.47367C67.7796 6.27283 67.8955 6.06316 67.9972 5.84614V5.26315C67.9753 5.19316 67.9311 5.13276 67.8718 5.09165C67.8124 5.05053 67.7413 5.03108 67.6699 5.03643C67.4897 5.02877 67.311 5.0722 67.1533 5.16193C66.9443 5.29554 66.7274 5.41699 66.5184 5.56679C66.2305 5.74898 65.9505 5.93521 65.6706 6.12549C65.3625 6.33323 65.095 6.59824 64.8819 6.90687C64.7557 7.09311 64.6137 7.27529 64.4875 7.46962C64.2457 7.87293 63.9181 8.21481 63.5292 8.46962C63.1349 8.74088 62.7405 9.01618 62.3265 9.27934L61.7074 9.73278C61.2775 10.0445 60.824 10.3198 60.3745 10.5992C59.9249 10.8785 59.499 11.1579 59.0652 11.4494C58.9189 11.5548 58.7793 11.6698 58.6472 11.7935C58.5526 11.8745 58.4579 11.9555 58.3672 12.0405C58.2826 12.1153 58.2035 12.1965 58.1306 12.2834C57.9001 12.6003 57.5767 12.833 57.2078 12.9474L56.2811 13.2429L55.386 13.5385C55.1415 13.6194 54.8891 13.6842 54.6525 13.7854C54.3933 13.8984 54.144 14.0339 53.9072 14.1903C53.6274 14.3789 53.3348 14.5466 53.0317 14.6923C52.5545 14.9231 52.0616 15.0972 51.5726 15.3117C51.3327 15.4082 51.0862 15.4867 50.8352 15.5465C50.6821 15.5833 50.5347 15.6419 50.3975 15.7206C50.1766 15.8583 49.9637 16.004 49.7547 16.1579C49.5533 16.3424 49.3781 16.555 49.2341 16.7895C49.129 16.9217 49.0186 17.0567 48.9029 17.1943C48.8221 17.2896 48.7169 17.3597 48.5992 17.3967C48.5397 17.427 48.4851 17.4666 48.4376 17.5142C48.4257 17.5605 48.4191 17.608 48.4178 17.6559C48.425 17.8185 48.3953 17.9807 48.3311 18.1295C48.2807 18.2451 48.259 18.3717 48.268 18.498C48.2778 18.6479 48.2435 18.7975 48.1694 18.9271C48.13 19 48.0984 19.0729 48.0629 19.1457C47.9394 19.3961 47.7302 19.5907 47.4753 19.6923C47.1945 19.8071 46.9023 19.8899 46.6038 19.9393L46.241 20.004C46.0862 20.0333 45.9465 20.118 45.8467 20.2429C45.7915 20.3158 45.7284 20.3806 45.6771 20.4575L45.1645 21.2227C45.0654 21.3767 44.9504 21.5192 44.8214 21.6478C44.6532 21.8169 44.5001 22.0012 44.3639 22.1984C44.1015 22.5872 43.7883 22.9373 43.4333 23.2389C43.3312 23.3294 43.2338 23.4254 43.1415 23.5263C43.0863 23.5789 43.0192 23.6194 42.9601 23.668C42.9666 23.6126 42.9799 23.5582 42.9995 23.5061C43.2129 23.1004 43.4541 22.7108 43.7212 22.3401C43.8473 22.1822 43.942 21.9959 44.0564 21.8218C44.1707 21.6478 44.3166 21.4494 44.4507 21.2672C44.5256 21.1619 44.6084 21.0688 44.6755 20.9636C44.8648 20.664 45.0462 20.3603 45.2355 20.0607C45.3235 19.9278 45.4197 19.8007 45.5233 19.6802C45.6603 19.5246 45.8431 19.4193 46.0439 19.3806C46.2805 19.3279 46.525 19.2874 46.7655 19.2389C46.9847 19.2097 47.1942 19.1279 47.3768 19L47.4517 18.8704C47.493 18.8084 47.5198 18.7374 47.53 18.6629C47.5403 18.5885 47.5337 18.5127 47.5108 18.4413C47.4715 18.3204 47.4715 18.1897 47.5108 18.0688C47.5906 17.8399 47.6016 17.5917 47.5424 17.3563C47.53 17.2821 47.532 17.2061 47.5483 17.1327C47.5646 17.0593 47.5948 16.9899 47.6374 16.9286C47.6799 16.8672 47.7338 16.8152 47.796 16.7753C47.8582 16.7354 47.9275 16.7086 47.9998 16.6963C48.0872 16.6809 48.1755 16.6714 48.264 16.668C48.3882 16.6092 48.4895 16.5095 48.5519 16.3846C48.6702 16.166 48.7964 15.9474 48.9187 15.7368C48.9857 15.3967 48.7925 15.2146 48.5559 15.0405C48.181 14.9842 47.8029 14.9545 47.4241 14.9514C47.346 14.9551 47.2682 14.9646 47.1914 14.9797C47.1285 14.9984 47.0636 15.0093 46.9982 15.0121C46.8069 15.0063 46.6168 15.045 46.4422 15.1255C46.0202 15.2793 45.5943 15.421 45.1724 15.5749C44.7816 15.7179 44.403 15.8939 44.0406 16.1012C43.6029 16.3563 43.1454 16.5789 42.6919 16.8097C42.1415 17.0955 41.6331 17.4594 41.1816 17.8907C40.9449 18.1214 40.7044 18.3482 40.4599 18.5668C40.2464 18.7719 39.9815 18.9121 39.6949 18.9717C39.5524 19.0018 39.4115 19.0397 39.2729 19.085C38.9577 19.1631 38.635 19.2052 38.3107 19.2105C38.0303 19.2162 37.7514 19.2528 37.4786 19.3198C37.1277 19.4048 36.7767 19.4656 36.4218 19.5142C36.1901 19.5556 35.961 19.611 35.7356 19.6802C35.6179 19.7116 35.5031 19.7536 35.3925 19.8057L34.9114 20.0526C34.872 20.0729 34.8286 20.085 34.7892 20.1093C34.332 20.3801 33.915 20.7169 33.5509 21.1093C33.537 21.1635 33.5185 21.2163 33.4957 21.2672C33.476 21.3276 33.444 21.3831 33.4019 21.4298C33.3597 21.4766 33.3084 21.5136 33.2512 21.5385L32.8884 21.7166C32.4008 21.9214 31.9288 22.1636 31.4767 22.4413C31.0062 22.7508 30.458 22.9126 29.8993 22.9069C29.5522 22.9069 29.2052 22.9433 28.8582 22.9716C28.7251 22.9857 28.5933 23.0101 28.4638 23.0445C28.2864 23.0769 28.1129 23.1214 27.9354 23.1498C27.8583 23.1616 27.7799 23.1616 27.7028 23.1498C27.5805 23.1498 27.4583 23.1134 27.3084 23.085L26.8588 22.753C26.68 22.8085 26.5174 22.9086 26.3856 23.0445C26.2799 23.1294 26.1822 23.2243 26.0938 23.3279C25.6098 23.8227 25.0504 24.233 24.4376 24.5425C23.9801 24.7854 23.5227 25.0283 23.0573 25.2591C22.7537 25.4048 22.4382 25.5304 22.1267 25.664C22.0296 25.6985 21.924 25.6985 21.827 25.664C22.0655 25.5646 22.2918 25.4369 22.5013 25.2834C22.7551 25.1063 23.0184 24.9442 23.29 24.7976C23.779 24.5223 24.2838 24.2631 24.7727 23.9878C25.0879 23.8103 25.3761 23.5867 25.6285 23.3239C25.8449 23.0902 26.0782 22.8736 26.3265 22.6761L26.6617 22.4494C26.7132 22.4138 26.7715 22.3899 26.8327 22.3795C26.8939 22.369 26.9566 22.3721 27.0166 22.3887C27.0457 22.4066 27.0734 22.4269 27.0994 22.4494C27.2131 22.5706 27.3574 22.6571 27.5161 22.6992C27.6748 22.7414 27.8418 22.7376 27.9985 22.6882L28.6216 22.5425L29.5641 22.2915C29.6385 22.2672 29.7151 22.2509 29.7928 22.2429C30.1179 22.2157 30.4235 22.0724 30.6564 21.838C30.8063 21.6963 30.9482 21.5465 31.0823 21.3967C31.2913 21.1545 31.5411 20.9529 31.8197 20.8016C31.9147 20.751 31.9986 20.6812 32.0664 20.5962C32.1341 20.5113 32.1844 20.4132 32.2141 20.3077L32.0997 20.085C32.02 20.0255 31.9274 19.9867 31.8299 19.9719C31.7324 19.9571 31.6329 19.9668 31.5398 20C31.3894 20.0472 31.2287 20.0472 31.0784 20L30.7589 19.919H30.684C30.5767 19.9193 30.4714 19.9491 30.3792 20.0053C30.2869 20.0616 30.2111 20.1422 30.1595 20.2389C30.1034 20.3242 30.0415 20.4054 29.9742 20.4818C29.8558 20.6523 29.6803 20.7719 29.4813 20.8178C29.2092 20.8826 28.9371 20.9555 28.6689 21.0243C28.637 21.0369 28.604 21.0464 28.5703 21.0526C28.1208 21.0526 27.6791 21.17 27.2295 21.1295C27.1428 21.1295 27.0521 21.1053 26.9653 21.1012C26.888 21.0932 26.81 21.0932 26.7327 21.1012C26.2204 21.1621 25.703 21.1621 25.1908 21.1012C24.8431 21.0654 24.492 21.0928 24.1536 21.1822C23.9052 21.2429 23.6528 21.2996 23.4044 21.3684C23.1037 21.4598 22.7912 21.5035 22.4776 21.498C22.0353 21.4815 21.6014 21.6248 21.2512 21.9028C21.1369 21.9919 21.0146 22.0729 20.9042 22.17C20.4556 22.5535 19.946 22.8548 19.3978 23.0607C18.7905 23.3077 18.1832 23.5384 17.5562 23.7247C17.3636 23.7862 17.1814 23.8777 17.0159 23.9959C16.7416 24.1754 16.4888 24.3874 16.2627 24.6275C16.0025 24.8988 15.7343 25.1579 15.474 25.4372C15.2847 25.6356 15.1191 25.8421 14.9298 26.0486C14.6378 26.3929 14.3243 26.7175 13.9913 27.0202C13.6561 27.2915 13.3367 27.583 13.0133 27.8664L12.4139 28.3887C12.3286 28.4629 12.2391 28.5319 12.1457 28.5951C11.6911 28.9316 11.2541 29.2924 10.8365 29.6761C10.5329 29.9474 10.2213 30.2105 9.90584 30.4858C9.59036 30.7611 9.16052 31.0769 8.78984 31.3725L8.68336 31.4575C8.37577 31.6842 8.06818 31.919 7.7527 32.1417C7.52398 32.3036 7.27948 32.4494 7.04682 32.6032C6.62092 32.8826 6.19897 33.166 5.77702 33.4494C5.67449 33.5182 5.5759 33.5992 5.47337 33.668C5.30775 33.7814 5.13818 33.8988 4.96466 34C4.62599 34.1785 4.30161 34.3843 3.99457 34.6154C3.68558 34.8462 3.35539 35.0455 3.0087 35.2105C2.4921 35.4656 1.9834 35.7287 1.47074 35.9959C1.21487 36.1132 0.951328 36.2119 0.682048 36.2915C0.649295 36.2954 0.616215 36.2954 0.583461 36.2915C0.48178 36.2914 0.380249 36.2995 0.279813 36.3158C0.193374 36.3411 0.110024 36.3764 0.0313746 36.421L-0.00806034 36.3158C0.284197 36.1464 0.562481 35.9528 0.824014 35.7368C0.984524 35.609 1.15613 35.4965 1.33667 35.4008C1.75073 35.1943 2.12536 34.9069 2.51971 34.6721C2.91818 34.4328 3.2979 34.1621 3.65543 33.8623C3.92168 33.6487 4.21318 33.4705 4.523 33.332C4.70917 33.2525 4.88111 33.1417 5.0317 33.004C5.115 32.9273 5.20474 32.8582 5.29986 32.7976L6.60909 31.8866C6.68402 31.838 6.755 31.7814 6.83387 31.7368C7.03824 31.6174 7.23336 31.4821 7.41751 31.332C7.74876 31.0729 8.08395 30.8259 8.42309 30.5789C8.76223 30.332 9.07771 30.0972 9.40896 29.8623C9.74022 29.6275 9.92556 29.421 10.1977 29.2105C10.6945 28.8057 11.2032 28.4413 11.7041 28.0567C11.8539 27.9393 12.0038 27.8138 12.1536 27.6923C12.3035 27.5708 12.3745 27.498 12.4928 27.4129C12.7622 27.2057 13.0118 26.9726 13.2381 26.7166C13.5018 26.4323 13.7795 26.162 14.0702 25.9069C14.341 25.6645 14.5941 25.402 14.8273 25.1214C15.1901 24.7166 15.5766 24.3117 15.9749 23.9069C16.0663 23.822 16.1653 23.7461 16.2706 23.6801C16.5506 23.5142 16.8345 23.3441 17.1224 23.1943C17.2615 23.1202 17.4102 23.067 17.5641 23.0364C17.7405 22.9997 17.9144 22.951 18.0846 22.8907C18.9101 22.6285 19.6909 22.2365 20.3994 21.7287C20.6715 21.5263 20.9397 21.3239 21.1881 21.1012C21.4916 20.8224 21.8851 20.6695 22.2923 20.6721C22.5947 20.6583 22.8942 20.6053 23.1835 20.5142C23.6654 20.399 24.163 20.3703 24.6544 20.4291C24.8895 20.4433 25.1252 20.4433 25.3603 20.4291C26.011 20.4291 26.6617 20.4291 27.3321 20.4291C27.5332 20.4291 27.7264 20.3806 27.9315 20.3563C28.0616 20.3563 28.1957 20.3158 28.3258 20.3077C28.5978 20.3008 28.8656 20.2373 29.113 20.1211C29.3604 20.0049 29.5823 19.8384 29.7652 19.6316C29.9133 19.442 30.1263 19.3175 30.3607 19.2834C30.5618 19.2551 30.755 19.2065 30.9561 19.17C30.9995 19.17 31.0429 19.17 31.0902 19.17C31.1375 19.17 31.2006 19.17 31.2598 19.17C31.6841 19.1985 32.1102 19.1658 32.5256 19.0729C32.7011 19.0344 32.8825 19.0344 33.058 19.0729C33.0921 19.0768 33.1265 19.0768 33.1605 19.0729C33.7757 19.0729 34.3869 19.1862 35.0061 19.166C35.1743 19.1613 35.3418 19.1424 35.5069 19.1093C35.7908 19.0486 36.0787 19 36.3666 18.9595C36.71 18.9136 37.05 18.8432 37.384 18.749C37.7103 18.6643 38.0452 18.6194 38.3817 18.6154C38.6845 18.6094 38.9848 18.5575 39.2729 18.4615C39.3032 18.4471 39.3349 18.4363 39.3676 18.4291C39.6739 18.3642 39.951 18.1978 40.1563 17.9555C40.4396 17.6436 40.744 17.3528 41.0672 17.085C41.4071 16.8031 41.7714 16.5538 42.1556 16.3401C42.8142 15.9919 43.4767 15.6518 44.1273 15.3117C44.6084 15.0665 45.1099 14.866 45.6259 14.7125C45.8309 14.6478 46.0202 14.5749 46.2331 14.502C46.4461 14.4291 46.6985 14.336 46.9311 14.2591C47.2739 14.1427 47.6418 14.1286 47.9919 14.2186C48.0906 14.2394 48.191 14.2503 48.2916 14.251C48.5716 14.251 48.8556 14.251 49.1355 14.251C49.3692 14.2388 49.6013 14.2063 49.8296 14.1538C50.6183 13.9757 51.407 13.7814 52.2193 13.5951C52.5585 13.5182 52.9016 13.4615 53.2368 13.3765C53.9466 13.2024 54.6406 12.9716 55.3386 12.7652C56.0516 12.525 56.7315 12.1916 57.3616 11.7733C57.7836 11.5101 58.1503 11.1862 58.5762 10.9109C59.0021 10.6356 59.4517 10.3077 59.9052 10.0364C60.6742 9.57893 61.4077 9.07286 62.1333 8.5506C62.3817 8.37246 62.638 8.21051 62.8943 8.04452L63.1191 7.89473C63.4641 7.6736 63.7469 7.36378 63.9394 6.99594C64.0822 6.73183 64.2601 6.48931 64.4678 6.27529C64.6295 6.1012 64.7833 5.91497 64.9371 5.73683C65.1328 5.50081 65.3764 5.31152 65.6508 5.18217C65.9624 5.02428 66.2976 4.92711 66.613 4.77732C67.1746 4.54407 67.7133 4.25668 68.222 3.91902C68.3758 3.80566 68.5453 3.71254 68.707 3.60728C68.9318 3.4528 69.1977 3.37359 69.4681 3.38056C70.0793 3.38056 70.0241 3.29553 70.3199 3.01213C70.5171 2.8259 70.7143 2.65586 70.9311 2.47772C71.0179 2.4008 71.1007 2.32387 71.1796 2.2429C71.5076 1.91287 71.8625 1.61219 72.2404 1.34412C72.5569 1.10878 72.9231 0.953423 73.3091 0.890677L73.4747 0.870433C73.9021 0.791778 74.3066 0.614593 74.6577 0.352215C74.7918 0.271243 74.9338 0.19837 75.0757 0.129545C75.4339 -0.00941482 75.82 -0.0553115 76.1996 -0.00405941C76.3402 0.00727703 76.4758 0.0546009 76.594 0.133591C77.1274 0.453133 77.7196 0.655771 78.3331 0.728733C78.5336 0.750982 78.7359 0.750982 78.9364 0.728733C79.1375 0.728733 79.3308 0.692297 79.5398 0.688248C79.9104 0.688248 80.2811 0.688248 80.6518 0.688248C81.077 0.678803 81.5012 0.640936 81.9216 0.574888C82.2237 0.556642 82.5265 0.556642 82.8286 0.574888C82.9824 0.574888 83.0573 0.643712 83.223 0.842093L83.2427 1.21861C83.2671 1.25126 83.2949 1.28112 83.3255 1.30768C83.355 1.32471 83.3883 1.33365 83.4221 1.33365C83.456 1.33365 83.4892 1.32471 83.5187 1.30768L84.0432 1.07286C84.378 0.909303 84.7451 0.827548 85.1158 0.833997C85.3288 0.833997 85.5417 0.833997 85.7547 0.833997C86.004 0.82406 86.2533 0.856899 86.4921 0.931162C86.8791 1.21608 87.2504 1.5229 87.6042 1.85019C87.7895 1.86534 87.9658 1.93886 88.1089 2.06072C88.2711 2.18486 88.4635 2.26052 88.665 2.27934C88.8976 2.31578 89.1342 2.31983 89.3669 2.35627C89.8025 2.38612 90.2359 2.44426 90.6643 2.53035C90.936 2.60412 91.1924 2.72755 91.4215 2.89472C91.7674 3.13267 92.0483 3.45737 92.2378 3.83804C92.3127 4.00404 92.3837 4.17408 92.4586 4.34412C92.5335 4.51416 92.5927 4.65991 92.6676 4.81375C92.7977 5.07084 92.9996 5.28227 93.2473 5.42104C93.3627 5.49417 93.4857 5.55391 93.614 5.59918C94.1228 5.77762 94.6217 5.98441 95.1086 6.21861C95.6463 6.44558 96.1983 6.63495 96.7609 6.78541C97.3564 6.9595 97.944 7.09311 98.5592 7.21456C98.8115 7.26315 99.06 7.34817 99.3084 7.41294C99.7737 7.53035 100.251 7.61132 100.724 7.68825C101.197 7.76517 101.607 7.85019 102.045 7.92711C102.365 7.98379 102.684 8.04452 103.007 8.09311C103.396 8.14511 103.777 8.24432 104.143 8.38865C104.353 8.47145 104.55 8.58608 104.727 8.72873C105.03 8.96755 105.384 9.12856 105.76 9.19837C105.87 9.22266 105.977 9.25505 106.083 9.28744C106.422 9.38093 106.733 9.55738 106.99 9.80161C107.326 10.1078 107.696 10.3702 108.094 10.583C108.485 10.8126 108.824 11.1228 109.092 11.4939C109.342 11.8157 109.645 12.0897 109.987 12.3036C110.169 12.421 110.35 12.5344 110.528 12.6559C110.84 12.8584 111.13 13.0961 111.391 13.3644C111.623 13.6144 111.888 13.8285 112.18 14C112.369 14.1012 112.547 14.2267 112.728 14.336C113.167 14.5914 113.636 14.7887 114.124 14.9231C114.148 14.9231 114.171 14.9231 114.191 14.9231C114.618 15.1003 115.081 15.1671 115.54 15.1174C115.674 15.1174 115.808 15.085 115.934 15.0688C116.36 15.0202 116.778 14.9433 117.2 14.8907C117.622 14.838 118.119 14.8542 118.576 14.8421C118.79 14.8368 119 14.9052 119.172 15.0364C119.434 15.2499 119.742 15.3969 120.071 15.4656C120.348 15.5149 120.614 15.6121 120.86 15.753C121.072 15.8745 121.289 16 121.51 16.1093C122.155 16.4573 122.842 16.7173 123.553 16.8826C123.664 16.9007 123.776 16.9089 123.888 16.9069C124.125 16.9069 124.361 16.9069 124.594 16.9069C124.808 16.906 125.02 16.8518 125.209 16.749C125.336 16.6772 125.468 16.615 125.604 16.5627C125.891 16.4451 126.204 16.406 126.511 16.4494C126.798 16.5913 127.1 16.7025 127.41 16.7814C127.697 16.8664 127.977 16.9959 128.261 17.0972C128.429 17.1612 128.602 17.2113 128.778 17.247C129.309 17.3407 129.822 17.5182 130.3 17.7733C130.695 17.9919 131.116 18.2024 131.523 18.4251C131.834 18.5847 132.116 18.7968 132.359 19.0526C132.391 19.0843 132.421 19.1181 132.449 19.1538C132.551 19.3166 132.685 19.4548 132.844 19.5587C133.065 19.7181 133.267 19.9028 133.447 20.1093C133.51 20.1781 133.569 20.2429 133.636 20.3077C133.759 20.4267 133.904 20.519 134.062 20.5789C134.602 20.7683 135.158 20.9039 135.722 20.9838C136.034 21.0223 136.347 21.0385 136.661 21.0324H137.469C137.637 21.0362 137.805 21.024 137.97 20.9959C138.126 20.9797 138.284 20.9797 138.44 20.9959C138.934 20.9926 139.427 20.9629 139.918 20.9069C140.353 20.8649 140.782 20.7655 141.192 20.6113C142.036 20.3036 142.897 20.0481 143.771 19.8461C144.055 19.7773 144.331 19.6923 144.615 19.6275C144.875 19.5546 145.129 19.4626 145.376 19.3522C145.68 19.2308 145.972 19.081 146.267 18.9474C146.757 18.7208 147.265 18.5379 147.786 18.4008C147.994 18.3544 148.209 18.3462 148.42 18.3765C148.556 18.3848 148.687 18.4341 148.795 18.5182C148.872 18.5652 148.945 18.6194 149.012 18.6802C149.306 18.9839 149.683 19.1898 150.093 19.2712C150.463 19.3694 150.824 19.505 151.169 19.6761C151.53 19.842 151.844 20.0982 152.084 20.421C152.447 20.9028 152.802 21.3887 153.161 21.8745C153.386 22.1892 153.644 22.4782 153.93 22.7368C154.379 23.1417 154.809 23.5465 155.235 23.9838C155.483 24.2348 155.712 24.502 155.949 24.7652C156.184 25.012 156.432 25.2445 156.694 25.4615C156.848 25.5951 157.021 25.7085 157.171 25.8461C157.435 26.0784 157.72 26.2832 158.023 26.4575C158.204 26.5708 158.371 26.7068 158.52 26.8623C158.536 26.8775 158.552 26.8937 158.567 26.9109C158.98 27.367 159.457 27.7572 159.983 28.0688C160.251 28.2389 160.507 28.421 160.771 28.5992C160.846 28.6513 160.917 28.7081 160.984 28.7692C161.232 29.0053 161.496 29.2231 161.773 29.421C162.069 29.6294 162.325 29.8931 162.526 30.1984C162.623 30.3527 162.745 30.4895 162.885 30.6032C163.244 30.8645 163.529 31.2177 163.713 31.6275C163.789 31.8105 163.917 31.9657 164.08 32.0729C164.548 32.4112 165.044 32.7066 165.563 32.9555C165.78 33.0486 165.997 33.1457 166.206 33.251C166.355 33.3279 166.497 33.4251 166.643 33.5101L167.365 33.9474C167.791 34.2024 168.217 34.4575 168.639 34.7206C168.765 34.7968 168.882 34.8863 168.99 34.9878C169.332 35.2871 169.698 35.5579 170.082 35.7976C170.524 36.0931 170.973 36.3725 171.411 36.6721C171.652 36.8217 171.862 37.0184 172.03 37.251C172.172 37.4601 172.369 37.623 172.598 37.7206C173.002 37.8918 173.416 38.0391 173.836 38.1619C174.018 38.2186 174.203 38.2672 174.38 38.332C174.964 38.5344 175.563 38.7368 176.127 38.9555C176.871 39.2146 177.575 39.5784 178.221 40.0364C178.348 40.1315 178.468 40.2357 178.58 40.3482C178.843 40.6181 179.106 40.888 179.369 41.1579C179.519 41.3135 179.661 41.477 179.795 41.6478C179.893 41.7655 179.966 41.9036 180.008 42.0526C179.972 42.0526 179.937 42.0526 179.921 42.0526C179.768 41.9567 179.622 41.8498 179.483 41.7328C179.237 41.5151 178.974 41.3201 178.695 41.1498C178.664 41.1356 178.635 41.1179 178.608 41.0972C178.178 40.7824 177.72 40.5113 177.239 40.2874C176.71 40.0117 176.158 39.7828 175.591 39.6032C175.311 39.5223 175.039 39.4048 174.763 39.3117C174.234 39.1295 173.702 38.9433 173.186 38.7652C172.877 38.6585 172.574 38.5356 172.279 38.3968C172.095 38.3108 171.927 38.193 171.782 38.0486C171.719 37.9838 171.651 37.9231 171.592 37.8502C171.387 37.6057 171.141 37.4002 170.867 37.2429C170.37 36.9514 169.901 36.6154 169.416 36.3036C169.095 36.0921 168.786 35.8637 168.489 35.6194C168.402 35.5465 168.309 35.4801 168.213 35.421L166.71 34.5101C166.592 34.4372 166.474 34.3725 166.363 34.2955C166.059 34.0995 165.738 33.9315 165.405 33.7935C165.062 33.652 164.733 33.4771 164.423 33.2712C164.206 33.1214 163.985 32.9919 163.765 32.8664C163.433 32.6485 163.166 32.3401 162.996 31.9757C162.93 31.8355 162.855 31.7002 162.771 31.5708C162.722 31.4922 162.659 31.4236 162.585 31.3684C162.284 31.1494 162.024 30.8749 161.82 30.5587C161.718 30.4033 161.592 30.2664 161.446 30.1538C161.099 29.8826 160.767 29.5911 160.42 29.3198C160.216 29.1581 160.002 29.0081 159.782 28.8704C159.333 28.5879 158.901 28.2783 158.488 27.9433C158.356 27.8364 158.237 27.7142 158.133 27.5789C157.987 27.4037 157.815 27.2522 157.625 27.1295C157.349 26.9352 157.065 26.749 156.8 26.5385C156.208 26.0807 155.656 25.57 155.152 25.0121C154.967 24.7976 154.777 24.587 154.58 24.3846C154.462 24.2591 154.328 24.1579 154.206 24.0364C153.832 23.6703 153.478 23.2838 153.145 22.8785L152.486 22.0972C152.359 21.9659 152.2 21.8722 152.025 21.8259C151.861 21.8627 151.707 21.9375 151.575 22.0445C151.502 22.2986 151.449 22.5587 151.418 22.8218C151.41 22.8565 151.41 22.8925 151.418 22.9271C151.455 23.1422 151.471 23.3606 151.465 23.5789C151.478 23.7511 151.511 23.921 151.563 24.085C151.792 24.7605 152.132 25.3905 152.569 25.9474C152.671 26.07 152.782 26.185 152.9 26.2915C153.097 26.4777 153.295 26.664 153.5 26.8461C153.758 27.0878 153.952 27.3929 154.064 27.7328C154.229 28.2146 154.458 28.6599 154.651 29.1295C154.734 29.3441 154.821 29.5546 154.907 29.7652C155.011 30.0461 155.171 30.3013 155.377 30.5142C155.538 30.6761 155.692 30.8421 155.85 31.0081C156.031 31.197 156.244 31.3518 156.477 31.4656C156.732 31.5863 156.976 31.73 157.207 31.8947C157.428 32.0542 157.664 32.1898 157.912 32.2996C158.441 32.5506 158.961 32.8178 159.49 33.085C159.569 33.1255 159.659 33.1538 159.687 33.2591C159.286 33.1684 158.891 33.0535 158.504 32.915C158.307 32.83 158.11 32.7287 157.916 32.6559C157.538 32.5124 157.171 32.3377 156.82 32.1336C156.682 32.0607 156.536 32 156.39 31.9393C156.086 31.8193 155.807 31.6422 155.566 31.417C155.408 31.2712 155.247 31.1295 155.093 30.9797C154.775 30.6695 154.521 30.2963 154.348 29.8826C154.213 29.5749 154.064 29.2793 153.926 28.9757C153.788 28.6721 153.65 28.3725 153.531 28.0688C153.433 27.8106 153.279 27.5782 153.082 27.3887C152.798 27.1457 152.53 26.8826 152.246 26.6397C151.904 26.3399 151.619 25.9774 151.406 25.5708C151.218 25.2176 151.065 24.8459 150.948 24.4615C150.856 24.1177 150.717 23.7891 150.534 23.4858C150.377 23.2157 150.245 22.931 150.14 22.6356C149.974 22.2308 149.816 21.8259 149.639 21.421C149.46 21.0363 149.234 20.6759 148.969 20.3482C148.838 20.1781 148.704 20.0081 148.574 19.834C148.428 19.6328 148.254 19.4542 148.058 19.3036C147.926 19.2683 147.787 19.2797 147.663 19.336C147.23 19.498 146.808 19.6882 146.39 19.8826C145.732 20.2035 145.041 20.4493 144.331 20.6154C143.38 20.8327 142.444 21.1113 141.527 21.4494C141.082 21.6023 140.624 21.7135 140.159 21.7814C139.891 21.8259 139.623 21.8219 139.37 21.8502C138.901 21.8988 138.428 21.8826 137.962 21.9312C137.537 21.9649 137.111 21.9743 136.685 21.9595C136.338 21.9575 135.991 21.9332 135.648 21.8866C135.105 21.7987 134.571 21.6633 134.05 21.4818C133.651 21.3597 133.291 21.1289 133.009 20.8138C132.769 20.5385 132.509 20.2834 132.276 20.004C131.78 19.3883 131.135 18.9165 130.407 18.6356C130.052 18.498 129.709 18.3198 129.366 18.1538C129.116 18.0205 128.851 17.9198 128.577 17.8542C128.371 17.7973 128.17 17.7256 127.974 17.6397L127.272 17.4008L126.794 17.247C126.414 17.1334 126.006 17.165 125.647 17.336C125.359 17.465 125.057 17.5574 124.748 17.6113C124.518 17.662 124.285 17.6905 124.05 17.6963C123.724 17.6914 123.4 17.641 123.088 17.5465C122.648 17.4141 122.223 17.2364 121.818 17.0162C121.305 16.7542 120.753 16.5818 120.185 16.5061C119.83 16.4588 119.484 16.355 119.16 16.1984C119.099 16.1697 119.042 16.133 118.99 16.0891C118.852 15.9757 118.71 15.8623 118.576 15.7368C118.419 15.5848 118.216 15.4932 118 15.4777C117.677 15.4433 117.35 15.4433 117.026 15.4777C116.917 15.4951 116.806 15.5046 116.695 15.5061C116.449 15.5037 116.203 15.5364 115.966 15.6032C115.768 15.6518 115.571 15.6882 115.37 15.7166C114.944 15.7424 114.517 15.6662 114.124 15.4939C113.809 15.3765 113.489 15.2753 113.174 15.1579C112.962 15.0824 112.754 14.9959 112.551 14.8988C112.208 14.7287 111.868 14.5465 111.525 14.3765C111.377 14.3032 111.243 14.2015 111.131 14.0769C110.804 13.7279 110.432 13.4256 110.027 13.1781L109.66 12.9312C109.234 12.6524 108.861 12.2956 108.56 11.8785C108.327 11.5821 108.037 11.3381 107.708 11.1619C107.274 10.9206 106.867 10.6315 106.493 10.2996C106.375 10.2 106.242 10.1207 106.099 10.0648C105.941 10.0034 105.779 9.95471 105.614 9.91902C105.186 9.82427 104.783 9.63653 104.431 9.36841C104.07 9.11128 103.655 8.94611 103.22 8.88663C102.471 8.74493 101.722 8.60323 100.973 8.48177C100.551 8.41294 100.133 8.34412 99.7185 8.25505C99.3991 8.18622 99.0876 8.09311 98.7721 8.01618C98.3462 7.91497 97.9242 7.80161 97.4944 7.72064C97.3055 7.70235 97.1154 7.70235 96.9265 7.72064L96.7728 7.85424C96.7473 7.91372 96.7362 7.97861 96.7403 8.04344C96.7444 8.10827 96.7637 8.17113 96.7964 8.22671C96.8508 8.32734 96.9128 8.42345 96.9818 8.51416C97.2581 8.87881 97.4521 9.30197 97.5496 9.75303C97.6995 10.3806 97.8572 11 98.0071 11.6275C98.0504 11.8138 98.0741 12.0324 98.1096 12.2186C98.1831 12.3711 98.2834 12.5083 98.4054 12.6235C98.473 12.6835 98.5351 12.7499 98.5907 12.8219C98.7636 13.0357 98.9985 13.1875 99.2611 13.2551C99.7935 13.4332 100.322 13.6235 100.838 13.8097C100.961 13.8415 101.065 13.9215 101.13 14.0324C101.159 14.0811 101.2 14.1215 101.249 14.1498C101.485 14.2834 101.671 14.4899 101.891 14.6437C102.064 14.771 102.243 14.8886 102.428 14.9959C102.944 15.2793 103.449 15.5749 103.942 15.8947C104.26 16.1091 104.592 16.3012 104.936 16.4696C105.496 16.7368 106.044 17.0324 106.592 17.3158C106.692 17.3678 106.787 17.4288 106.876 17.498C107.03 17.6154 107.176 17.7409 107.322 17.8664C107.497 18.0276 107.653 18.2097 107.787 18.4089C108.03 18.7252 108.247 19.0624 108.434 19.417C108.748 20.0661 109.116 20.6864 109.534 21.2712C109.723 21.5263 109.928 21.7652 110.141 22.0081C110.236 22.1214 110.342 22.2227 110.472 22.3603C110.409 22.3603 110.378 22.3603 110.358 22.336C110.181 22.1984 110.007 22.0526 109.83 21.9109C109.601 21.726 109.396 21.5125 109.218 21.2753C108.767 20.6748 108.371 20.0323 108.035 19.3563C107.996 19.2834 107.956 19.2146 107.913 19.1498C107.791 18.9838 107.673 18.8138 107.546 18.6518C107.212 18.2315 106.779 17.9054 106.288 17.7044C106.111 17.6235 105.933 17.5546 105.764 17.4696C105.359 17.272 104.942 17.1043 104.514 16.9676C104.073 16.832 103.653 16.6359 103.264 16.3846C102.846 16.0972 102.408 15.834 101.99 15.5506C101.678 15.3401 101.383 15.1174 101.075 14.9028C101.012 14.8583 100.945 14.8259 100.874 14.7854C100.833 14.8126 100.796 14.8453 100.764 14.8826C100.359 15.4205 99.9177 15.9279 99.4425 16.4008C99.2493 16.6194 99.0679 16.8583 98.8904 17.0972C98.7593 17.2581 98.6856 17.4601 98.6813 17.6698C98.677 17.8796 98.7424 18.0845 98.8667 18.251C98.9456 18.3725 99.0205 18.502 99.1073 18.6559V18.9433C99.0679 19.004 99.0324 19.0486 99.0048 19.1012C98.7527 19.6184 98.3665 20.0541 97.8888 20.3603L97.0646 21.0162C97.014 21.0612 96.9599 21.1018 96.9029 21.1376C96.5971 21.3316 96.3531 21.613 96.2009 21.9474C96.0845 22.1605 96.0548 22.4122 96.1181 22.6478C96.1905 22.944 96.3251 23.2203 96.5125 23.4575C96.8163 23.6655 97.1504 23.8226 97.5023 23.9231L98.0701 24.1295C98.4786 24.2697 98.8325 24.5407 99.0797 24.9028C99.296 25.2021 99.5462 25.4739 99.825 25.7125C99.9078 25.7895 99.9985 25.8623 100.089 25.9312C100.248 26.0585 100.423 26.1621 100.61 26.2389C101.045 26.4222 101.462 26.6472 101.856 26.9109C102.14 27.0832 102.404 27.2868 102.645 27.5182C102.781 27.655 102.943 27.7612 103.122 27.8299C103.425 27.9508 103.71 28.1143 103.97 28.3158C104.126 28.4282 104.29 28.5271 104.463 28.6113C104.606 28.6809 104.762 28.7168 104.92 28.7166H106.131C106.321 28.7131 106.511 28.6955 106.698 28.664C106.911 28.6403 107.124 28.6308 107.337 28.6356C107.562 28.6356 107.787 28.6356 108.012 28.6356C108.113 28.6292 108.214 28.6462 108.307 28.6855C108.401 28.7247 108.484 28.7852 108.552 28.8623C108.58 28.8947 108.619 28.9231 108.658 28.9636C108.91 29.0101 109.168 29.0101 109.419 28.9636C109.851 28.8948 110.278 28.7974 110.697 28.6721C110.859 28.6235 111.024 28.5911 111.182 28.5304C111.592 28.4107 112.021 28.3749 112.444 28.4251C112.556 28.4349 112.663 28.4785 112.752 28.5506C112.908 28.663 113.076 28.758 113.253 28.834C113.424 28.9103 113.578 29.0213 113.706 29.1605C113.834 29.2997 113.933 29.4641 113.998 29.6437C114.039 29.7388 114.074 29.8361 114.104 29.9352C114.252 30.3596 114.489 30.7453 114.798 31.0648C115.203 31.53 115.683 31.9191 116.218 32.2146C116.817 32.5465 117.401 32.8988 117.985 33.2793C118.252 33.4486 118.542 33.578 118.844 33.664C119.089 33.7409 119.318 33.8623 119.566 33.9433C119.513 33.9534 119.458 33.9534 119.404 33.9433C119.132 33.8461 118.837 33.8218 118.56 33.7449C118.269 33.6571 117.989 33.5319 117.728 33.3725L116.762 32.8178L115.662 32.2186C115.396 32.069 115.148 31.8869 114.925 31.6761C114.672 31.4332 114.428 31.1781 114.191 30.915C114 30.6888 113.851 30.4279 113.753 30.1457C113.707 30.0162 113.655 29.8891 113.596 29.7652C113.543 29.644 113.466 29.5349 113.372 29.4445C113.277 29.3541 113.165 29.2842 113.044 29.2389C112.888 29.1747 112.738 29.0946 112.598 29C112.454 28.9098 112.289 28.8596 112.121 28.8542C111.853 28.8473 111.587 28.887 111.332 28.9716C110.894 29.1093 110.449 29.2348 110.007 29.3765C109.649 29.4693 109.283 29.5262 108.915 29.5465C108.729 29.5649 108.541 29.5328 108.371 29.4534L108.256 29.3522C108.211 29.3091 108.159 29.2758 108.101 29.2542C108.043 29.2326 107.982 29.2233 107.921 29.2267C107.82 29.2206 107.718 29.2206 107.617 29.2267C107.318 29.2591 107.018 29.3117 106.718 29.332C106.308 29.3878 105.894 29.4176 105.48 29.421C105.311 29.4109 105.141 29.4109 104.971 29.421C104.6 29.4354 104.233 29.3307 103.922 29.1214C103.733 29 103.548 28.8664 103.358 28.7449C103.248 28.6664 103.131 28.5999 103.007 28.5465C102.656 28.4202 102.336 28.2172 102.069 27.9514C101.874 27.761 101.655 27.5989 101.418 27.4696C101.316 27.417 101.225 27.3522 101.13 27.2915C100.914 27.1469 100.683 27.0287 100.44 26.9393C100.218 26.8565 100.009 26.7391 99.8211 26.5911C99.5568 26.3806 99.2926 26.1862 99.0324 25.9474C98.8472 25.7957 98.6909 25.6105 98.571 25.4008C98.4429 25.1686 98.241 24.9885 97.9992 24.8907C97.802 24.8057 97.6048 24.7206 97.4077 24.6518C97.0488 24.5182 96.686 24.3967 96.3232 24.2753C95.9593 24.1543 95.6199 23.9663 95.3215 23.7206C95.2105 23.6248 95.0933 23.5369 94.9706 23.4575C94.7924 23.3571 94.6532 23.1971 94.5762 23.004C94.5591 22.9675 94.5393 22.9323 94.5171 22.8988C94.4894 22.8861 94.4589 22.8817 94.4289 22.886C94.3989 22.8903 94.3707 22.9031 94.3475 22.9231C94.2686 22.9676 94.1937 23.0162 94.1188 23.0648L93.267 23.6194C93.0848 23.7314 92.9177 23.8675 92.7701 24.0243C92.655 24.1596 92.5223 24.2781 92.3758 24.3765C92.1338 24.5505 91.8531 24.6591 91.5595 24.6923C91.3575 24.6382 91.147 24.6258 90.9403 24.6559C90.7574 24.7431 90.6037 24.884 90.4987 25.0607C90.3764 25.251 90.2463 25.4413 90.1043 25.6275C90.0095 25.7574 89.883 25.8594 89.7376 25.9231C89.43 26.0607 89.1185 26.1943 88.803 26.3279C88.4086 26.4696 88.0419 26.5911 87.6594 26.7328C87.5016 26.7895 87.3478 26.8583 87.1901 26.9231C86.9653 27.0162 86.7327 27.1093 86.5079 27.2146C86.2831 27.3198 86.0189 27.4413 85.7823 27.5749C85.4139 27.7795 85.0135 27.9165 84.5992 27.9797C84.2562 28.0324 83.917 28.1053 83.5779 28.1862C83.449 28.2193 83.3162 28.2329 83.1835 28.2267C82.9696 28.2141 82.7565 28.2631 82.5683 28.3684C82.4578 28.4237 82.343 28.4697 82.2253 28.5061C81.9274 28.6136 81.6509 28.7755 81.409 28.9838L81.0974 29.2429C80.9155 29.4147 80.7552 29.6092 80.6203 29.8219C80.304 30.2689 80.0257 30.743 79.7882 31.2389C79.7093 31.4049 79.6029 31.5506 79.5082 31.7085C79.3978 31.8816 79.2977 32.0614 79.2085 32.247C78.924 32.8725 78.5679 33.461 78.1477 34C77.9032 34.3158 77.6863 34.6518 77.4694 34.9878C77.2464 35.3471 77.0055 35.6944 76.7478 36.0283C76.6571 36.1376 76.5861 36.2753 76.4362 36.3239L76.3495 36.2389Z" fill="#1C1C1C"/>
<path d="M134.469 33.6842C134.408 33.6776 134.349 33.664 134.291 33.6437L133.23 33.1214C132.898 32.9535 132.578 32.7613 132.272 32.5465C131.766 32.1974 131.3 31.7899 130.884 31.332C130.779 31.2278 130.702 31.0983 130.659 30.9555C130.653 30.9218 130.642 30.8892 130.628 30.8583C130.463 30.44 130.397 29.9879 130.434 29.5384C130.466 29.0567 130.49 28.5749 130.553 28.0972C130.559 27.9825 130.559 27.8677 130.553 27.753C130.543 27.5802 130.559 27.4067 130.6 27.2389C130.604 27.2161 130.604 27.1928 130.6 27.17C130.632 26.7652 130.659 26.3887 130.691 26C130.691 25.7935 130.73 25.5951 130.746 25.3846C130.746 25.2672 130.746 25.1538 130.746 25.0364C130.743 24.8748 130.681 24.7201 130.572 24.6032C130.398 24.406 130.191 24.2416 129.961 24.1174C129.768 24.004 129.567 23.8988 129.366 23.8016C129.143 23.7221 128.913 23.6664 128.68 23.6356C128.492 23.6016 128.308 23.5473 128.131 23.4737C127.957 23.3954 127.799 23.2826 127.666 23.1417C127.248 22.6923 126.826 22.247 126.404 21.7976C126.358 21.7488 126.308 21.7041 126.254 21.664C125.946 21.4339 125.607 21.2498 125.249 21.1174C124.941 21.0081 124.641 20.8785 124.334 20.7652C124.156 20.7004 123.975 20.6316 123.794 20.583C123.333 20.4396 122.864 20.326 122.39 20.2429C122.114 20.1984 121.842 20.1376 121.566 20.0891C121.443 20.0648 121.321 20.0526 121.199 20.0405L120.698 19.9838C120.655 19.9838 120.611 19.9838 120.564 19.9838C120.104 19.97 119.649 19.8839 119.215 19.7287C118.841 19.6194 118.47 19.4858 118.083 19.4129C118.04 19.4038 117.998 19.3902 117.957 19.3725L116.127 18.8138C116.083 18.8073 116.04 18.7964 115.997 18.7814C115.614 18.622 115.218 18.4961 114.814 18.4048C114.696 18.3725 114.578 18.3401 114.459 18.2996C114.3 18.2462 114.136 18.2069 113.97 18.1822C113.748 18.1553 113.53 18.0953 113.324 18.004C112.953 17.838 112.586 17.6721 112.22 17.498C112.078 17.4291 111.947 17.3401 111.825 17.2591C111.698 17.1787 111.566 17.1058 111.431 17.0405C111.053 16.863 110.696 16.643 110.366 16.3846C109.972 16.085 109.55 15.7814 109.132 15.4899C108.893 15.3174 108.664 15.1309 108.446 14.9312C108.27 14.7717 108.086 14.623 107.894 14.4858C107.578 14.2672 107.251 14.081 106.935 13.8461C106.62 13.6113 106.328 13.4129 106.02 13.2024C105.89 13.1093 105.756 13.0324 105.626 12.9433C105.56 12.9006 105.498 12.8518 105.441 12.7976C105.374 12.7296 105.311 12.6579 105.251 12.583L105.378 12.4534C105.805 12.5525 106.215 12.7191 106.592 12.9474C106.987 13.1943 107.357 13.4291 107.728 13.6882C108.109 13.9231 108.468 14.1942 108.801 14.498C108.929 14.6273 109.069 14.7438 109.219 14.8461C109.637 15.1579 110.058 15.4575 110.473 15.7733C110.711 15.9642 110.96 16.1413 111.218 16.3036C111.273 16.3426 111.331 16.3777 111.391 16.4089C111.707 16.5304 111.987 16.7287 112.29 16.8745C112.594 17.0202 112.862 17.1376 113.15 17.2793C113.201 17.3036 113.257 17.3198 113.308 17.3482C113.599 17.496 113.912 17.5931 114.235 17.6356C114.323 17.6483 114.41 17.6672 114.495 17.6923C114.868 17.8134 115.247 17.9147 115.631 17.9959C115.675 18.0065 115.719 18.0214 115.761 18.0405C116.371 18.2666 116.994 18.4545 117.626 18.6032C117.811 18.6518 117.993 18.7166 118.178 18.753C118.718 18.8583 119.247 19.0081 119.779 19.1295C120.019 19.1922 120.265 19.2248 120.513 19.2267C120.645 19.2337 120.776 19.2486 120.907 19.2712C120.95 19.2712 120.998 19.2712 121.041 19.2712C121.41 19.2834 121.777 19.3322 122.137 19.417C122.476 19.4858 122.82 19.5465 123.159 19.6235C123.498 19.7004 123.746 19.7611 124.038 19.838C124.513 19.9741 124.979 20.139 125.434 20.332C125.686 20.4301 125.931 20.5451 126.168 20.6761C126.506 20.8565 126.813 21.0916 127.079 21.3725C127.402 21.7247 127.745 22.0607 128.076 22.4048C128.264 22.619 128.517 22.7616 128.794 22.8097C128.893 22.8097 128.987 22.8623 129.086 22.8866C129.852 23.0848 130.547 23.5066 131.085 24.1012C131.222 24.2549 131.331 24.4334 131.405 24.6275C131.428 24.6785 131.443 24.7333 131.448 24.7895C131.478 25.0585 131.478 25.3302 131.448 25.5992C131.429 25.6886 131.416 25.7792 131.408 25.8704C131.388 26.1342 131.353 26.3965 131.302 26.6559C131.243 27.0607 131.192 27.4656 131.136 27.8461L131.065 28.3927C131.03 28.6801 130.987 28.9635 130.963 29.247C130.926 29.5328 130.917 29.8216 130.935 30.1093C130.954 30.5384 131.126 30.9453 131.42 31.251C131.753 31.5771 132.102 31.8852 132.465 32.1741C132.769 32.4089 133.084 32.6316 133.408 32.838C133.605 32.9636 133.802 33.1174 133.98 33.2429L134.469 33.6842Z" fill="#1C1C1C"/>
<path d="M64.9017 33.2793C65.1678 32.8681 65.4876 32.4962 65.8521 32.1741C65.9546 32.0891 66.0454 31.9838 66.1439 31.8907L67.0864 31C67.2442 30.8542 67.4137 30.7206 67.5715 30.5951C67.7292 30.4696 67.9422 30.2591 68.1196 30.085C68.372 29.838 68.6126 29.5789 68.861 29.332C69.168 29.0129 69.4526 28.672 69.7128 28.3117C69.839 28.1376 69.9612 27.9555 70.0716 27.7692C70.1954 27.5764 70.2712 27.3554 70.2925 27.1255C70.35 26.4707 70.5552 25.8386 70.8919 25.2793C71.0914 24.9146 71.4207 24.6433 71.8107 24.5223C72.1222 24.4251 72.4259 24.3036 72.7295 24.1903C73.0375 24.0537 73.3297 23.8826 73.6011 23.6801C73.9549 23.4321 74.2141 23.0658 74.3345 22.6437C74.4016 22.4494 74.4568 22.2389 74.5041 22.0486C74.5355 21.9435 74.5458 21.833 74.5343 21.7237C74.5228 21.6144 74.4897 21.5087 74.4371 21.4129C74.374 21.3036 74.3109 21.1943 74.2557 21.081C74.2017 20.981 74.1556 20.8767 74.1176 20.7692C74.0579 20.619 74.0488 20.4525 74.0916 20.2963C74.1345 20.1401 74.2269 20.003 74.3543 19.9069C74.5511 19.7346 74.7668 19.5865 74.997 19.4656C75.506 19.1997 76.0009 18.9064 76.4798 18.587C76.8071 18.3887 77.1384 18.1822 77.4657 17.9919C77.6076 17.9028 77.7496 17.8097 77.8876 17.7125C77.9824 17.6498 78.0891 17.6087 78.2007 17.5919C78.3123 17.5752 78.426 17.5832 78.5343 17.6154C78.5619 17.6154 78.5817 17.6559 78.6211 17.6882C78.5306 17.8346 78.4248 17.9703 78.3056 18.0931C77.9783 18.4251 77.651 18.7571 77.3079 19.0688C77.1324 19.2301 76.9422 19.3738 76.7401 19.498C76.464 19.6721 76.1722 19.8219 75.8883 19.9838L75.1824 20.3887C75.1505 20.409 75.1214 20.4335 75.0956 20.4615C75.0719 20.5044 75.0614 20.5538 75.0656 20.603C75.0698 20.6522 75.0886 20.6989 75.1193 20.7368C75.2549 20.9486 75.3573 21.1808 75.4229 21.4251C75.48 21.659 75.48 21.9037 75.4229 22.1376C75.3084 22.7137 75.0905 23.2629 74.7801 23.7571C74.6536 23.9476 74.4978 24.1158 74.3188 24.2551C73.9288 24.5843 73.4839 24.8381 73.0056 25.004C72.631 25.1214 72.2603 25.255 71.8975 25.3765C71.748 25.4857 71.6296 25.6339 71.5544 25.8057C71.3643 26.2333 71.2316 26.6855 71.16 27.1498C71.1403 27.251 71.1127 27.3522 71.0969 27.4534C71.058 27.7045 70.9576 27.9413 70.8051 28.1417C70.5676 28.4902 70.3039 28.8192 70.0164 29.1255C69.8902 29.2551 69.7877 29.4089 69.6576 29.5304C69.2987 29.8785 68.928 30.2105 68.5652 30.5546C68.0881 31.0081 67.5596 31.3968 67.0549 31.8178L66.2031 32.5465C66.0189 32.6967 65.8192 32.8257 65.6076 32.9312C65.4065 33.0324 65.2133 33.1538 65.02 33.2591C64.9778 33.2742 64.9342 33.285 64.8899 33.2915L64.9017 33.2793Z" fill="#1C1C1C"/>
<path d="M83.5583 37.004C83.6569 36.8907 83.7476 36.7814 83.8501 36.672C84.1363 36.3647 84.4566 36.0929 84.8045 35.8623C85.1066 35.6433 85.3843 35.3908 85.6326 35.1093C85.8258 34.915 86.027 34.7044 86.1965 34.5182C86.3661 34.332 86.5672 34.085 86.7525 33.8704C86.8472 33.7571 86.9379 33.6397 87.0404 33.5344C87.4979 33.0445 87.9356 32.5344 88.3654 32.0202C88.5145 31.8329 88.6752 31.6558 88.8465 31.4899C88.9515 31.3868 89.0649 31.2933 89.1857 31.2105C89.3434 31.0971 89.509 31.004 89.6589 30.8866C89.8109 30.7676 89.9733 30.6633 90.1439 30.5749C90.3884 30.4372 90.629 30.2874 90.8735 30.1498C91.0777 30.0298 91.2884 29.9216 91.5044 29.8259C91.8949 29.6793 92.2481 29.444 92.5376 29.1376L92.6283 29.0364C92.8547 28.7513 93.1797 28.567 93.5353 28.5222C93.6591 28.5406 93.7775 28.5863 93.8823 28.6562C93.9872 28.7261 94.076 28.8185 94.1426 28.9271C94.3095 29.1598 94.5103 29.3647 94.7381 29.5344C94.8363 29.6109 94.9238 29.7008 94.9984 29.8016C95.3057 30.1983 95.6685 30.5462 96.0749 30.834C96.3749 31.0551 96.6608 31.2958 96.9307 31.5546L97.6641 32.2146C97.6967 32.246 97.734 32.272 97.7746 32.2915C97.9878 32.3946 98.1889 32.5222 98.374 32.672C98.6129 32.8471 98.8937 32.9521 99.1863 32.9757C99.5625 33.04 99.9212 33.1848 100.239 33.4008C100.553 33.5995 100.811 33.8786 100.988 34.2105C101.196 34.5784 101.361 34.9696 101.481 35.3765C101.548 35.6194 101.635 35.8583 101.71 36.0971C101.746 36.1826 101.771 36.2724 101.785 36.3644C101.81 36.6305 101.931 36.8776 102.124 37.0567C102.266 37.204 102.357 37.3943 102.384 37.5992L102.333 37.8907C102.298 37.9248 102.252 37.9439 102.203 37.9439C102.155 37.9439 102.108 37.9248 102.073 37.8907C102.044 37.8743 102.02 37.8506 102.002 37.8218C101.848 37.5939 101.665 37.3883 101.458 37.2105C101.32 37.0746 101.22 36.9044 101.166 36.7166C101.067 36.3522 100.953 35.9919 100.847 35.6275C100.787 35.421 100.732 35.2227 100.661 35.004C100.597 34.8082 100.517 34.6186 100.421 34.4372C100.263 34.1288 100.015 33.8794 99.7108 33.7247C99.5264 33.6148 99.325 33.5381 99.1153 33.498C98.9272 33.4736 98.7422 33.4288 98.5633 33.3644C98.4142 33.3124 98.2702 33.246 98.1334 33.166L97.5143 32.8259C97.0844 32.6152 96.686 32.3425 96.3312 32.0162C96.0959 31.787 95.8456 31.5746 95.582 31.3805C95.4873 31.3195 95.3988 31.249 95.3178 31.17C95.0282 30.9022 94.7641 30.6066 94.5291 30.2874C94.4327 30.1608 94.3244 30.0441 94.2057 29.9393C94.0111 29.7645 93.8365 29.5675 93.6852 29.3522C93.6299 29.2826 93.5692 29.2176 93.5038 29.1579C93.4404 29.1634 93.3787 29.1821 93.3224 29.2127C93.2662 29.2433 93.2165 29.2852 93.1765 29.336C93.0858 29.4372 92.9911 29.5384 92.8965 29.6356C92.5834 29.95 92.2082 30.1916 91.7963 30.3441C91.4726 30.4722 91.1599 30.6279 90.8616 30.8097C90.8048 30.8487 90.7455 30.8839 90.6842 30.915C90.2758 31.1134 89.8806 31.3393 89.5012 31.5911C89.2154 31.7756 88.9632 32.0099 88.7558 32.2834C88.4601 32.6478 88.1328 32.9797 87.8094 33.3117C87.4151 33.7368 86.9852 34.1619 86.5633 34.5749C86.2399 34.8907 85.8968 35.1862 85.5616 35.4939C85.4749 35.5708 85.3999 35.6518 85.3092 35.7247C85.1691 35.8381 85.023 35.9436 84.8715 36.0405C84.6424 36.1867 84.4224 36.3476 84.213 36.5222C84.0276 36.668 83.8186 36.8016 83.6411 36.9271C83.6086 36.9333 83.5751 36.9333 83.5426 36.9271L83.5583 37.004Z" fill="#1C1C1C"/>
<path d="M71.9606 8.37245C71.9796 8.29494 72.0046 8.21913 72.0355 8.14573C72.2339 7.7723 72.4538 7.41134 72.6941 7.06476C72.7505 6.97993 72.8182 6.90361 72.8952 6.83804C73.2064 6.57509 73.5015 6.29249 73.7785 5.99189C73.9656 5.81041 74.166 5.64393 74.3779 5.49391C74.87 5.14707 75.3794 4.82679 75.904 4.5344C76.2532 4.32649 76.614 4.13993 76.9846 3.97569C77.5919 3.70444 78.1676 3.34411 78.7315 3.01213C78.9678 2.85922 79.1827 2.67399 79.3704 2.46152C79.4806 2.34674 79.6007 2.2424 79.7292 2.14978C79.7683 2.11596 79.8151 2.09283 79.8652 2.08252C79.9153 2.07221 79.9672 2.07506 80.016 2.09081C80.0647 2.10656 80.1088 2.13469 80.1442 2.1726C80.1795 2.21051 80.205 2.25697 80.2182 2.30768C80.2365 2.34323 80.2461 2.38284 80.2461 2.42306C80.2461 2.46328 80.2365 2.50289 80.2182 2.53844C80.1404 2.69593 80.03 2.83409 79.8948 2.9433C79.5912 3.17812 79.2875 3.41294 78.976 3.63966C78.6645 3.86638 78.2465 4.12954 77.8758 4.3927C77.6432 4.55355 77.3914 4.68283 77.1265 4.77731C76.5784 4.97569 76.0342 5.18217 75.49 5.39674C75.437 5.41551 75.3856 5.43853 75.3362 5.46557C74.8436 5.71435 74.3859 6.03029 73.9757 6.40484C73.7312 6.63966 73.463 6.85019 73.2067 7.07691C73.0857 7.17885 72.9748 7.29276 72.8755 7.41699C72.7568 7.57187 72.6248 7.7155 72.4811 7.84614C72.3589 7.9676 72.2445 8.0931 72.1222 8.21456C72.067 8.26719 72.0039 8.31577 71.9448 8.36436L71.9606 8.37245Z" fill="#1C1C1C"/>
<path d="M144.647 33.1215C144.593 33.1093 144.542 33.0903 144.493 33.0648C144.107 32.8106 143.735 32.5335 143.381 32.2348C143.322 32.1822 143.259 32.1336 143.203 32.0769C142.912 31.7895 142.628 31.498 142.332 31.2105C142.211 31.0981 142.115 30.9599 142.052 30.8057C141.93 30.5317 141.873 30.232 141.886 29.9312C141.89 29.8516 141.89 29.7719 141.886 29.6923C141.867 29.3474 141.902 29.0016 141.989 28.668C142.006 28.6006 142.015 28.5312 142.016 28.4615C142.034 28.164 142.069 27.8679 142.123 27.5749C142.133 27.4604 142.133 27.3453 142.123 27.2308C142.123 27.1296 142.087 27.0283 142.083 26.9231C142.092 26.6357 142.056 26.3488 141.977 26.0729C141.947 25.9739 141.947 25.8682 141.977 25.7692C142.021 25.5846 142.112 25.4154 142.241 25.2794C142.278 25.2729 142.315 25.2771 142.349 25.2914C142.383 25.3058 142.413 25.3296 142.434 25.3603C142.672 25.6236 142.836 25.9482 142.908 26.2996C142.908 26.3806 142.927 26.4575 142.931 26.5385C142.935 26.6194 142.931 26.7692 142.931 26.8826C142.946 27.2393 142.905 27.596 142.809 27.9393C142.707 28.3036 142.647 28.6761 142.537 29.0405C142.487 29.2057 142.46 29.3775 142.458 29.5506C142.458 29.7085 142.419 29.8704 142.419 30.0283C142.402 30.194 142.418 30.3614 142.467 30.5202C142.516 30.679 142.596 30.8258 142.703 30.9514C142.967 31.2308 143.207 31.5385 143.46 31.83C143.546 31.9351 143.641 32.0326 143.744 32.1215C144.055 32.3725 144.272 32.7166 144.56 32.9919C144.581 33.0107 144.598 33.0346 144.608 33.0613C144.618 33.0881 144.622 33.1171 144.619 33.1457L144.647 33.1215Z" fill="#1C1C1C"/>
<path d="M90.8893 21.1579C90.8534 21.1332 90.8192 21.1061 90.7867 21.0769C90.6211 20.8461 90.4515 20.6154 90.2977 20.3765C90.0481 20.0356 89.8696 19.6456 89.7733 19.2308C89.7572 19.152 89.7467 19.0722 89.7417 18.9919C89.7247 18.3555 89.8892 17.7279 90.2149 17.1862C90.4147 16.865 90.608 16.5411 90.7946 16.2146C91.0626 15.7601 91.2384 15.2547 91.3112 14.7287C91.3112 14.672 91.3349 14.6194 91.3467 14.5587C91.2963 14.3606 91.2829 14.1546 91.3073 13.9514C91.3275 13.8975 91.3587 13.8486 91.3988 13.8081C91.439 13.7676 91.4871 13.7364 91.5399 13.7166C91.5694 13.7183 91.5978 13.7283 91.6221 13.7454C91.6465 13.7625 91.6658 13.7862 91.678 13.8137C91.7567 13.978 91.8137 14.1522 91.8475 14.332C92.008 14.9235 91.979 15.5522 91.7647 16.1255C91.648 16.4255 91.4914 16.7075 91.2994 16.9635C91.1298 17.2065 90.9366 17.4291 90.7552 17.664C90.3925 18.1282 90.2199 18.7192 90.2741 19.3117C90.2842 19.438 90.3162 19.5614 90.3687 19.6761C90.52 20.0119 90.6517 20.3566 90.7631 20.7085C90.8104 20.8583 90.9169 20.9919 90.8972 21.166L90.8893 21.1579Z" fill="#1C1C1C"/>
<path d="M14.6145 29.2308C14.9968 28.7213 15.4188 28.2447 15.8764 27.8057C16.0481 27.6386 16.2088 27.4601 16.3575 27.2713C16.4837 27.1093 16.6152 26.9514 16.7519 26.7976C16.9767 26.5425 17.2054 26.2874 17.4341 26.0364C17.67 25.7718 17.9612 25.5656 18.2859 25.4332C18.4836 25.3489 18.6662 25.2312 18.8262 25.085C18.9948 24.9338 19.1942 24.8231 19.4098 24.7611C19.5912 24.7085 19.7686 24.6316 19.95 24.5749C20.0853 24.5184 20.2367 24.5184 20.372 24.5749C20.3772 24.6125 20.3772 24.6507 20.372 24.6883C20.3589 24.7253 20.3338 24.7568 20.301 24.7773C20.0364 25.0419 19.7515 25.2842 19.4492 25.502C19.3247 25.5796 19.2049 25.6648 19.0904 25.7571C18.9183 25.8872 18.7264 25.9871 18.5225 26.0526C18.3087 26.1241 18.1141 26.2461 17.9547 26.4089C17.5603 26.8138 17.1305 27.2186 16.7085 27.6235C16.3694 27.9433 16.0184 28.247 15.6714 28.5587C15.5941 28.624 15.5124 28.6835 15.4269 28.7368C15.1824 28.8988 14.9379 29.0607 14.6895 29.2186C14.6855 29.2308 14.6618 29.2308 14.6145 29.2308Z" fill="#1C1C1C"/>
<path d="M84.0631 10.7773C84.2603 10.8623 84.4929 10.8218 84.6191 11.0567C84.6452 11.1208 84.6586 11.1896 84.6586 11.2591C84.6586 11.3286 84.6452 11.3974 84.6191 11.4615C84.4184 11.988 84.1011 12.4592 83.6924 12.838C83.6737 12.8486 83.6539 12.8567 83.6333 12.8623C83.6333 12.8623 83.6017 12.8299 83.6056 12.8218C83.6806 12.6801 83.7713 12.5465 83.8344 12.417C83.9448 12.1781 84.0434 11.9312 84.1459 11.6882C84.1695 11.6528 84.1804 11.61 84.1768 11.5672C84.1732 11.5244 84.1553 11.4842 84.1262 11.4534L83.7831 11.5587C83.5149 11.5223 83.4479 11.4372 83.3335 10.9878C83.2652 10.9585 83.1955 10.9328 83.1245 10.9109C82.9529 10.8568 82.798 10.7578 82.675 10.6235C82.5803 10.5263 82.4896 10.421 82.3911 10.332C82.2123 10.1719 82.0845 9.96028 82.0243 9.72468C81.9731 9.5263 81.9336 9.31982 81.8942 9.12144C81.8843 9.04079 81.8843 8.95918 81.8942 8.87853C81.913 8.71793 81.9926 8.57139 82.1159 8.47062C82.2391 8.36985 82.3961 8.32295 82.5527 8.34007C82.5961 8.34007 82.6316 8.38055 82.675 8.40484C82.7341 8.8097 82.7933 9.21456 82.8564 9.61942L83.1679 10.0243C83.2697 10.1526 83.4073 10.2459 83.5623 10.2915C83.673 10.3163 83.7759 10.3694 83.8613 10.4458C83.9468 10.5222 84.0121 10.6195 84.0513 10.7287C84.0237 10.7247 84.0434 10.7409 84.0631 10.7773Z" fill="#1C1C1C"/>
<path d="M104.124 34.2105C104.124 34.1579 104.1 34.1336 104.124 34.1174C104.203 33.8159 104.21 33.4991 104.143 33.1943C104.112 32.933 104.057 32.6754 103.978 32.4251L103.848 32.0648C103.506 31.8894 103.23 31.6053 103.059 31.255C102.971 31.2369 102.884 31.2139 102.799 31.1862C102.658 31.1535 102.519 31.1102 102.384 31.0567C102.307 31.0221 102.238 30.9721 102.18 30.9095C102.122 30.8468 102.077 30.7729 102.048 30.6921C102.019 30.6112 102.005 30.5252 102.009 30.439C102.012 30.3528 102.033 30.2682 102.069 30.1903C102.169 30.0067 102.334 29.8702 102.53 29.8097C102.571 29.7924 102.616 29.7882 102.659 29.7976C102.702 29.807 102.741 29.8296 102.771 29.8623L102.842 30.1376C102.866 30.1579 102.885 30.1903 102.913 30.2024L103.134 30.2915L103.473 30.4453C103.573 30.5636 103.65 30.7012 103.698 30.8502C103.773 31.1054 103.908 31.3377 104.092 31.5263C104.251 31.6895 104.352 31.9038 104.376 32.1336C104.4 32.293 104.431 32.4511 104.471 32.6073C104.517 32.7987 104.517 32.9988 104.471 33.1903L104.364 33.6923C104.312 33.8775 104.231 34.0526 104.124 34.2105Z" fill="#1C1C1C"/>
<path d="M72.8005 2.93521C73.0174 2.85828 73.2501 2.77326 73.4828 2.70039C73.6352 2.65875 73.7672 2.56069 73.8534 2.42508C73.8951 2.33814 73.9561 2.26245 74.0314 2.20409C74.1067 2.14573 74.1944 2.10633 74.2872 2.08905C74.3563 2.09018 74.4227 2.11643 74.4747 2.16314C74.5267 2.20984 74.5609 2.27397 74.5711 2.34411C74.5526 2.46723 74.5047 2.58374 74.4318 2.68332C74.3589 2.7829 74.2632 2.86246 74.1531 2.91496C73.9847 3.02942 73.7906 3.09771 73.5892 3.11334C73.4591 3.11334 73.329 3.17407 73.1949 3.19431C73.0954 3.21309 73.0013 3.25447 72.9194 3.31541C72.8375 3.37635 72.77 3.45532 72.7217 3.54654C72.627 3.70039 72.5521 3.86638 72.4693 4.03642C72.445 3.83923 72.462 3.639 72.5191 3.4491C72.5762 3.2592 72.6722 3.084 72.8005 2.93521Z" fill="#1C1C1C"/>
<path d="M76.3418 36.2307C76.3442 36.2754 76.3325 36.3197 76.3083 36.357C76.2841 36.3942 76.2488 36.4224 76.2077 36.4372C76.2062 36.3922 76.2183 36.3478 76.2423 36.3102C76.2663 36.2725 76.301 36.2433 76.3418 36.2267V36.2307Z" fill="#1C1C1C"/>
<path d="M90.8893 21.166C90.9336 21.166 90.9618 21.2024 90.9215 21.2794L90.8973 21.1579L90.8893 21.166Z" fill="#1C1C1C"/>
<path d="M34.1821 30.2874C34.1821 30.3239 34.1347 30.3482 34.0598 30.3158L34.1899 30.2955L34.1821 30.2874Z" fill="#1C1C1C"/>
<path d="M83.4803 37.0648L83.4597 37.0896H83.4886L83.4803 37.0648Z" fill="#1C1C1C"/>
<path d="M83.4874 37.0729L83.5599 37.004L83.4874 37.0769V37.0729Z" fill="#1C1C1C"/>
<path d="M76.2086 36.4373L76.188 36.4663H76.2168L76.2086 36.4373Z" fill="#1C1C1C"/>
<path d="M64.8899 33.2794V33.3084L64.9187 33.2876L64.8899 33.2794Z" fill="#1C1C1C"/>
<path d="M159.656 33.1984H159.687L159.664 33.1741L159.656 33.1984Z" fill="#1C1C1C"/>
<path d="M144.706 33.1984L144.742 33.2267H144.722C144.718 33.2162 144.718 33.2048 144.722 33.1943L144.706 33.1984Z" fill="#1C1C1C"/>
<path d="M144.715 33.1903C144.706 33.1916 144.696 33.1908 144.688 33.1878C144.679 33.1848 144.67 33.1798 144.664 33.1731C144.657 33.1664 144.652 33.1583 144.649 33.1493C144.646 33.1403 144.645 33.1308 144.647 33.1214C144.656 33.1201 144.666 33.1209 144.674 33.1239C144.683 33.1269 144.692 33.1319 144.698 33.1386C144.705 33.1453 144.71 33.1534 144.713 33.1624C144.716 33.1714 144.717 33.1809 144.715 33.1903Z" fill="#1C1C1C"/>
<path d="M44.9565 29.5222L44.9359 29.5554L44.9647 29.5347L44.9565 29.5222Z" fill="#1C1C1C"/>
<path d="M42.8656 23.7166V23.7456H42.8903L42.8656 23.7166Z" fill="#1C1C1C"/>
<path d="M42.9381 23.6478L42.8656 23.7166C42.8666 23.698 42.8747 23.6805 42.8882 23.6677C42.9017 23.6549 42.9196 23.6477 42.9381 23.6478Z" fill="#1C1C1C"/>
<path d="M71.9606 8.36435V8.39751L71.9853 8.37264L71.9606 8.36435Z" fill="#1C1C1C"/>
</g>
<defs>
<clipPath id="clip0_83_1322">
<rect width="180" height="42" fill="white"/>
</clipPath>
</defs>
</svg>
