<svg width="1175" height="265" viewBox="0 0 1175 265" fill="none" xmlns="http://www.w3.org/2000/svg">
<path d="M1 63.5C378 6 396.5 264 580 264C848.315 264 789 77 1098.5 31.5" stroke="#3A9923" stroke-width="2" stroke-dasharray="8 8"/>
<path d="M1153.3 26L1141.5 10.028C1141.03 9.39875 1140.43 8.88744 1139.73 8.53521C1139.03 8.18298 1138.26 7.99966 1137.48 8H1132L1141.39 26H1153.3Z" stroke="#3A9923" stroke-width="2" stroke-miterlimit="10"/>
<path d="M1141.39 38H1133.57C1133.19 37.9999 1132.81 37.957 1132.44 37.872L1122.68 35.618C1121.86 35.4286 1121.1 35.0353 1120.47 34.4745C1119.84 33.9138 1119.37 33.2036 1119.09 32.41L1114 18H1121.12L1126 26H1167C1168.59 26 1170.12 26.6321 1171.24 27.7574C1172.37 28.8826 1173 30.4087 1173 32C1173 33.5913 1172.37 35.1174 1171.24 36.2426C1170.12 37.3679 1168.59 38 1167 38H1153.3" stroke="#3A9923" stroke-width="2" stroke-miterlimit="10"/>
<path d="M1144 33L1132 56H1137.48C1138.26 56.0003 1139.03 55.817 1139.73 55.4648C1140.43 55.1126 1141.03 54.6013 1141.5 53.972L1157 33H1144Z" stroke="#3A9923" stroke-width="2" stroke-miterlimit="10"/>
</svg>
