<svg width="24" height="24" viewBox="0 0 24 24" fill="none" xmlns="http://www.w3.org/2000/svg">
<g clip-path="url(#clip0_52_602)">
<path d="M5.5 3.5H18.5C19.0304 3.5 19.5391 3.71071 19.9142 4.08579C20.2893 4.46086 20.5 4.96957 20.5 5.5V18.5C20.5 19.0304 20.2893 19.5391 19.9142 19.9142C19.5391 20.2893 19.0304 20.5 18.5 20.5H5.5C4.96957 20.5 4.46086 20.2893 4.08579 19.9142C3.71071 19.5391 3.5 19.0304 3.5 18.5V5.5C3.5 4.96957 3.71071 4.46086 4.08579 4.08579C4.46086 3.71071 4.96957 3.5 5.5 3.5Z" stroke="#1C1C1C" stroke-width="1.5" stroke-linecap="round" stroke-linejoin="round"/>
<path d="M12 9.045C11.9753 9.0452 11.9512 9.05269 11.9308 9.06655C11.9104 9.0804 11.8945 9.09999 11.8852 9.12285C11.8759 9.14571 11.8736 9.17081 11.8785 9.19499C11.8834 9.21917 11.8954 9.24135 11.9129 9.25873C11.9305 9.27612 11.9527 9.28792 11.977 9.29266C12.0012 9.29741 12.0263 9.29487 12.049 9.28538C12.0718 9.27589 12.0913 9.25987 12.105 9.23934C12.1187 9.2188 12.126 9.19468 12.126 9.17C12.1257 9.13675 12.1123 9.10496 12.0887 9.08155C12.0651 9.05813 12.0332 9.045 12 9.045Z" stroke="#1C1C1C" stroke-width="1.5" stroke-linecap="round" stroke-linejoin="round"/>
<path d="M12 6.205C11.9753 6.2052 11.9512 6.2127 11.9308 6.22655C11.9104 6.24041 11.8945 6.26 11.8852 6.28286C11.8759 6.30571 11.8736 6.33081 11.8785 6.355C11.8834 6.37918 11.8954 6.40136 11.9129 6.41874C11.9305 6.43612 11.9527 6.44793 11.977 6.45267C12.0012 6.45741 12.0263 6.45488 12.049 6.44539C12.0718 6.4359 12.0913 6.41988 12.105 6.39934C12.1187 6.37881 12.126 6.35468 12.126 6.33C12.1255 6.29684 12.112 6.2652 12.0884 6.24184C12.0649 6.21848 12.0331 6.20526 12 6.205Z" stroke="#1C1C1C" stroke-width="1.5" stroke-linecap="round" stroke-linejoin="round"/>
<path d="M12 11.875C11.9753 11.8752 11.9512 11.8827 11.9308 11.8966C11.9104 11.9104 11.8945 11.93 11.8852 11.9529C11.8759 11.9757 11.8736 12.0008 11.8785 12.025C11.8834 12.0492 11.8954 12.0714 11.9129 12.0887C11.9305 12.1061 11.9527 12.1179 11.977 12.1227C12.0012 12.1274 12.0263 12.1249 12.049 12.1154C12.0718 12.1059 12.0913 12.0899 12.105 12.0693C12.1187 12.0488 12.126 12.0247 12.126 12C12.1257 11.9668 12.1123 11.935 12.0887 11.9116C12.0651 11.8881 12.0332 11.875 12 11.875Z" stroke="#1C1C1C" stroke-width="1.5" stroke-linecap="round" stroke-linejoin="round"/>
<path d="M12 14.705C11.9753 14.7052 11.9512 14.7127 11.9308 14.7266C11.9104 14.7404 11.8945 14.76 11.8852 14.7829C11.8759 14.8057 11.8736 14.8308 11.8785 14.855C11.8834 14.8792 11.8954 14.9014 11.9129 14.9187C11.9305 14.9361 11.9527 14.9479 11.977 14.9527C12.0012 14.9574 12.0263 14.9549 12.049 14.9454C12.0718 14.9359 12.0913 14.9199 12.105 14.8993C12.1187 14.8788 12.126 14.8547 12.126 14.83C12.1257 14.7968 12.1123 14.765 12.0887 14.7416C12.0651 14.7181 12.0332 14.705 12 14.705Z" stroke="#1C1C1C" stroke-width="1.5" stroke-linecap="round" stroke-linejoin="round"/>
<path d="M12 17.545C11.9753 17.5452 11.9512 17.5527 11.9308 17.5665C11.9104 17.5804 11.8945 17.6 11.8852 17.6229C11.8759 17.6457 11.8736 17.6708 11.8785 17.695C11.8834 17.7192 11.8954 17.7414 11.9129 17.7587C11.9305 17.7761 11.9527 17.7879 11.977 17.7927C12.0012 17.7974 12.0263 17.7949 12.049 17.7854C12.0718 17.7759 12.0913 17.7599 12.105 17.7393C12.1187 17.7188 12.126 17.6947 12.126 17.67C12.1257 17.6368 12.1123 17.605 12.0887 17.5815C12.0651 17.5581 12.0332 17.545 12 17.545Z" stroke="#1C1C1C" stroke-width="1.5" stroke-linecap="round" stroke-linejoin="round"/>
<path d="M14.9551 12C14.9549 11.9753 14.9474 11.9513 14.9335 11.9308C14.9197 11.9104 14.9001 11.8945 14.8772 11.8852C14.8544 11.8759 14.8293 11.8736 14.8051 11.8785C14.7809 11.8835 14.7587 11.8955 14.7413 11.913C14.724 11.9305 14.7122 11.9528 14.7074 11.977C14.7027 12.0012 14.7052 12.0263 14.7147 12.0491C14.7242 12.0719 14.7402 12.0913 14.7607 12.105C14.7813 12.1187 14.8054 12.126 14.8301 12.126C14.8633 12.1257 14.8951 12.1124 14.9185 12.0888C14.9419 12.0652 14.9551 12.0333 14.9551 12Z" stroke="#1C1C1C" stroke-width="1.5" stroke-linecap="round" stroke-linejoin="round"/>
<path d="M17.7949 12C17.7947 11.9753 17.7872 11.9513 17.7734 11.9308C17.7595 11.9104 17.7399 11.8945 17.7171 11.8852C17.6942 11.8759 17.6691 11.8736 17.6449 11.8785C17.6207 11.8835 17.5986 11.8955 17.5812 11.913C17.5638 11.9305 17.552 11.9528 17.5473 11.977C17.5425 12.0012 17.545 12.0263 17.5545 12.0491C17.564 12.0719 17.58 12.0913 17.6006 12.105C17.6211 12.1187 17.6452 12.126 17.6699 12.126C17.7032 12.1257 17.735 12.1124 17.7584 12.0888C17.7818 12.0652 17.7949 12.0333 17.7949 12Z" stroke="#1C1C1C" stroke-width="1.5" stroke-linecap="round" stroke-linejoin="round"/>
<path d="M9.29492 12C9.29472 11.9753 9.28722 11.9513 9.27337 11.9308C9.25951 11.9104 9.23992 11.8945 9.21706 11.8852C9.19421 11.8759 9.16911 11.8736 9.14492 11.8785C9.12074 11.8835 9.09856 11.8955 9.08118 11.913C9.0638 11.9305 9.05199 11.9528 9.04725 11.977C9.04251 12.0012 9.04504 12.0263 9.05453 12.0491C9.06402 12.0719 9.08004 12.0913 9.10058 12.105C9.12111 12.1187 9.14524 12.126 9.16992 12.126C9.20316 12.1257 9.23495 12.1124 9.25837 12.0888C9.28178 12.0652 9.29492 12.0333 9.29492 12Z" stroke="#1C1C1C" stroke-width="1.5" stroke-linecap="round" stroke-linejoin="round"/>
<path d="M6.45507 12C6.45488 11.9753 6.44738 11.9513 6.43352 11.9308C6.41967 11.9104 6.40008 11.8945 6.37722 11.8852C6.35436 11.8759 6.32926 11.8736 6.30508 11.8785C6.2809 11.8835 6.25872 11.8955 6.24134 11.913C6.22396 11.9305 6.21215 11.9528 6.20741 11.977C6.20267 12.0012 6.2052 12.0263 6.21469 12.0491C6.22418 12.0719 6.2402 12.0913 6.26073 12.105C6.28127 12.1187 6.30539 12.126 6.33007 12.126C6.36324 12.1255 6.39488 12.112 6.41824 12.0885C6.4416 12.0649 6.45482 12.0332 6.45507 12Z" stroke="#1C1C1C" stroke-width="1.5" stroke-linecap="round" stroke-linejoin="round"/>
</g>
<defs>
<clipPath id="clip0_52_602">
<rect width="24" height="24" fill="white"/>
</clipPath>
</defs>
</svg>
