<svg width="24" height="24" viewBox="0 0 24 24" fill="none" xmlns="http://www.w3.org/2000/svg">
<g clip-path="url(#clip0_52_616)">
<path d="M8 5H6C5.46957 5 4.96086 5.21071 4.58579 5.58579C4.21071 5.96086 4 6.46957 4 7V17C4 17.5304 4.21071 18.0391 4.58579 18.4142C4.96086 18.7893 5.46957 19 6 19H8" stroke="#1C1C1C" stroke-width="1.5" stroke-linecap="round" stroke-linejoin="round"/>
<path d="M13.431 20.952L18.431 19.848C18.8758 19.7498 19.2739 19.5027 19.5592 19.1476C19.8445 18.7925 20 18.3506 20 17.895V6.105C20 5.64945 19.8445 5.20755 19.5592 4.85241C19.2739 4.49727 18.8758 4.25017 18.431 4.152L13.431 3.048C13.1388 2.98351 12.8358 2.98542 12.5444 3.05358C12.2531 3.12174 11.9807 3.25442 11.7474 3.44184C11.5141 3.62926 11.3259 3.86663 11.1965 4.13648C11.0672 4.40632 11 4.70175 11 5.001V19C11.0002 19.2992 11.0674 19.5945 11.1968 19.8642C11.3262 20.1339 11.5145 20.3712 11.7478 20.5585C11.9811 20.7458 12.2534 20.8784 12.5447 20.9465C12.836 21.0146 13.1389 21.0165 13.431 20.952Z" stroke="#1C1C1C" stroke-width="1.5" stroke-linecap="round" stroke-linejoin="round"/>
<path d="M14 11V13" stroke="#1C1C1C" stroke-width="1.5" stroke-linecap="round" stroke-linejoin="round"/>
</g>
<defs>
<clipPath id="clip0_52_616">
<rect width="24" height="24" fill="white"/>
</clipPath>
</defs>
</svg>
