<?xml version="1.0" encoding="UTF-8"?>
<svg xmlns="http://www.w3.org/2000/svg" width="48" height="48" viewBox="0 0 48 48" fill="none">
  <g clip-path="url(#clip0_1679_23376)">
    <path d="M41.0052 6.97539C36.4929 2.47986 30.4929 0.00274282 24.1003 0C10.9275 0 0.207377 10.6695 0.202103 23.7838C0.200569 27.9759 1.30074 32.0679 3.39186 35.675L0.00146484 48L12.6702 44.6927C16.1607 46.5879 20.0907 47.5866 24.0901 47.5882H24.1002H24.1003C37.2711 47.5882 47.9928 36.9168 47.9984 23.8031C48.0006 17.4473 45.5169 11.4712 41.0052 6.97539ZM24.1003 43.571H24.0926C20.5278 43.5691 17.032 42.6163 13.9828 40.8149L13.2571 40.3866L5.73926 42.349L7.74644 35.0541L7.27365 34.3062C5.28517 31.1584 4.23542 27.5206 4.23691 23.7854C4.24128 12.8851 13.1514 4.01733 24.1078 4.01733C29.4136 4.01953 34.4003 6.07852 38.1507 9.81507C41.901 13.5516 43.9648 18.5187 43.9632 23.8014C43.9585 34.702 35.0481 43.571 24.1003 43.571Z" fill="#E0E0E0"></path>
    <path d="M1.09863 46.6325L4.33416 34.8705C2.33804 31.4282 1.28833 27.5228 1.28959 23.523C1.29482 11.008 11.5253 0.826172 24.0954 0.826172C30.1962 0.828915 35.9223 3.19276 40.2274 7.48304C44.5336 11.7733 46.9036 17.476 46.9011 23.5408C46.8959 36.0561 36.6647 46.2388 24.0963 46.2388C24.0954 46.2388 24.0969 46.2388 24.0963 46.2388H24.0861C20.2695 46.2376 16.5192 45.2837 13.1884 43.4764L1.09863 46.6325Z" fill="url(#paint0_linear_1679_23376)"></path>
    <path fill-rule="evenodd" clip-rule="evenodd" d="M18.1948 13.6864C17.7527 12.7077 17.2872 12.6882 16.8665 12.671C16.5225 12.6563 16.1286 12.6572 15.7354 12.6572C15.3418 12.6572 14.7023 12.8045 14.1614 13.3925C13.6203 13.9806 12.0952 15.4022 12.0952 18.2935C12.0952 21.1851 14.2106 23.9791 14.5055 24.3715C14.8006 24.7633 18.589 30.8863 24.5887 33.2419C29.5749 35.1995 30.5896 34.8101 31.6719 34.7121C32.7542 34.6142 35.1642 33.2909 35.6561 31.9185C36.1481 30.5465 36.1481 29.3704 36.0005 29.1245C35.8529 28.8797 35.4593 28.7327 34.869 28.4388C34.2786 28.145 31.3767 26.7231 30.8356 26.5271C30.2944 26.3312 29.9009 26.2333 29.5073 26.8216C29.1138 27.4094 27.9832 28.7327 27.6388 29.1245C27.2944 29.5173 26.9501 29.5663 26.3597 29.2724C25.7694 28.9776 23.8683 28.3577 21.613 26.3557C19.8583 24.7981 18.6735 22.8745 18.3292 22.2861C17.9848 21.6984 18.2923 21.38 18.5884 21.0871C18.8534 20.8238 19.1787 20.401 19.4739 20.0579C19.7684 19.7147 19.8668 19.4698 20.0636 19.078C20.2604 18.6855 20.162 18.3424 20.0144 18.0485C19.8668 17.7547 18.7197 14.8484 18.1948 13.6864Z" fill="white"></path>
    <path d="M40.8101 6.89973C36.3496 2.45581 30.4185 0.00717654 24.0994 0.00439453C11.0777 0.00439453 0.480651 10.5514 0.475416 23.5152C0.473881 27.6592 1.56141 31.7042 3.62853 35.2699L0.2771 47.4534L12.8004 44.184C16.2509 46.0574 20.1358 47.0447 24.0892 47.0462H24.0993H24.0994C37.1189 47.0462 47.7175 36.4973 47.723 23.5342C47.7252 17.2514 45.27 11.344 40.8101 6.89973ZM24.0994 43.0753H24.0917C20.5678 43.0734 17.1121 42.1315 14.0979 40.3508L13.3806 39.9274L5.94902 41.8673L7.93313 34.6561L7.46577 33.9168C5.50012 30.8051 4.46241 27.2091 4.46394 23.5168C4.46823 12.7417 13.2761 3.97569 24.1068 3.97569C29.3516 3.97784 34.281 6.01321 37.9885 9.70685C41.6957 13.4005 43.7357 18.3106 43.7342 23.5327C43.7296 34.308 34.9214 43.0753 24.0994 43.0753Z" fill="white"></path>
  </g>
  <defs>
    <linearGradient id="paint0_linear_1679_23376" x1="23.9999" y1="46.6325" x2="23.9999" y2="0.826248" gradientUnits="userSpaceOnUse">
      <stop stop-color="#20B038"></stop>
      <stop offset="1" stop-color="#60D66A"></stop>
    </linearGradient>
    <clipPath id="clip0_1679_23376">
      <rect width="48" height="48" fill="white"></rect>
    </clipPath>
  </defs>
</svg>
