<svg width="160" height="160" viewBox="0 0 160 160" fill="none" xmlns="http://www.w3.org/2000/svg">
<circle cx="80" cy="80" r="80" fill="#9556FF"/>
<path d="M65.1241 79.557C66.0466 77.7121 67.2 75.6361 68.5838 74.4833C70.89 72.6383 77.8089 58.7996 79.4234 55.3409C79.8847 54.1875 79.8847 52.5733 79.8847 50.9588C79.8847 47.9604 79.8847 44.04 84.2668 44.7317C96.721 47.0379 93.7227 57.4163 90.4939 66.4112C89.5714 69.4096 88.8794 70.1012 89.3405 71.7159C95.3368 70.7934 103.178 68.7175 108.944 71.9468C114.248 74.9451 113.326 79.3267 112.634 81.4026C115.862 84.401 115.171 90.3973 112.172 93.1648C113.787 96.6245 112.403 100.776 109.635 103.082C109.866 105.388 109.635 110.923 105.253 112.999C102.255 114.614 68.3522 113.46 64.6616 112.999C63.5082 114.383 61.6633 115.305 59.8183 115.305H51.7462C48.2865 115.305 45.2887 112.307 45.2887 108.848V83.2472C45.2887 79.5573 48.2871 76.7897 51.7462 76.7897H59.8183C61.8942 76.7897 63.9696 77.9431 65.123 79.5573L65.1241 79.557ZM59.8194 79.7879H51.7473C49.9023 79.7879 48.5186 81.4025 48.5186 83.2476V108.848C48.5186 110.693 49.9023 112.077 51.7473 112.077H59.8194C61.6644 112.077 63.2791 110.693 63.2791 108.848V83.2476C63.2791 81.4026 61.6645 79.7879 59.8194 79.7879ZM70.4281 77.0204C68.3522 78.635 66.7381 83.9391 66.5072 85.0925V110C71.5809 110.693 100.41 112.076 103.869 110.231C107.098 108.847 106.637 103.313 106.637 102.62C106.406 101.928 106.867 101.006 107.559 100.775C108.943 100.314 110.557 96.1629 108.943 93.8567C108.02 92.9342 108.482 91.5505 109.635 91.3195C111.941 90.6274 112.633 85.0924 109.866 83.017C109.174 82.5558 108.943 81.6333 109.405 80.9411C109.405 80.9411 111.942 77.2511 107.329 74.4836C102.255 71.7161 91.4146 74.4836 90.2613 74.7145C87.7241 75.637 86.3404 73.0999 86.11 71.0245C86.11 69.6408 86.8021 67.7958 87.7245 65.2586C90.0307 59.0315 93.4904 49.3446 83.8036 47.7304C82.6502 47.4995 82.8811 50.4979 82.8811 51.1901C82.8811 52.8047 82.8811 54.8801 82.189 56.4948C80.5744 60.4157 73.4253 74.4838 70.4268 77.021L70.4281 77.0204Z" fill="white"/>
<path fill-rule="evenodd" clip-rule="evenodd" d="M55.6681 84.6299C55.6681 85.9039 54.6358 86.9367 53.3619 86.9367C52.088 86.9367 51.0557 85.9038 51.0557 84.6299C51.0557 83.3565 52.088 82.3237 53.3619 82.3237C54.6358 82.3237 55.6681 83.3566 55.6681 84.6299Z" fill="white"/>
</svg>
