<svg width="160" height="160" viewBox="0 0 160 160" fill="none" xmlns="http://www.w3.org/2000/svg">
<circle cx="80" cy="80" r="80" fill="#EF6365"/>
<path d="M115.962 93.7743H112.874V58.1789C112.874 54.347 109.761 51.2344 105.929 51.2344L54.0619 51.2349C50.23 51.2349 47.1174 54.3474 47.1174 58.1794V93.7831L44.0289 93.7825C43.3496 93.7825 42.8 94.3322 42.8 95.0115V100.008C42.8 104.866 46.7451 108.82 51.5954 108.82H108.394C113.245 108.82 117.19 104.867 117.19 100.008V95.0115C117.191 94.3322 116.641 93.7745 115.962 93.7745L115.962 93.7743ZM49.5824 58.1789C49.5824 55.705 51.5956 53.7003 54.0609 53.7003H105.93C108.396 53.7003 110.408 55.7136 110.408 58.1789V93.7825H89.8506L89.5757 94.6316L88.2257 98.7786H71.7658L70.4158 94.6316L70.141 93.7825H49.5819L49.5824 58.1789ZM114.733 100.007C114.733 103.508 111.896 106.353 108.395 106.353H51.5963C48.104 106.353 45.2583 103.508 45.2583 100.007V96.2484H68.3477L69.6977 100.395L69.9725 101.244H90.0132L90.288 100.395L91.638 96.2484H114.727V100.007H114.733ZM108.193 89.2959V58.1713C108.193 56.9183 107.183 55.9 105.93 55.9H54.0612C52.8162 55.9 51.7978 56.9184 51.7978 58.1713V89.2959C51.7978 90.5489 52.8082 91.5673 54.0612 91.5673H105.93C107.174 91.5673 108.193 90.5489 108.193 89.2959ZM105.728 89.102H54.2633V58.3737H105.728V89.102Z" fill="white"/>
</svg>
