<svg width="160" height="160" viewBox="0 0 160 160" fill="none" xmlns="http://www.w3.org/2000/svg">
<circle cx="80" cy="80" r="80" fill="#3A9923"/>
<path d="M74.2304 115.642C75.1518 117.335 76.6433 118.308 78.3136 118.308C79.7342 118.308 81.0752 117.598 82.0931 116.305C82.88 115.31 84.6212 115 85.7091 115.665C86.5989 116.206 87.5525 116.494 88.4708 116.494C90.7364 116.494 92.4993 114.817 92.8545 112.318C93.034 111.054 94.2785 109.985 95.8369 109.985H95.8465C97.5903 109.985 99.0211 109.291 99.8719 108.026C100.723 106.759 100.825 105.159 100.163 103.524C99.6673 102.305 100.234 100.75 101.402 100.126C102.973 99.2841 103.949 97.9238 104.074 96.4009C104.205 94.8521 103.492 93.3865 102.068 92.2823C101.028 91.4729 100.73 89.8469 101.424 88.7306C102.371 87.2012 102.528 85.5881 101.872 84.1835C101.21 82.7756 99.8595 81.8569 98.0676 81.6073C97.2324 81.4921 96.5124 80.8937 96.093 80.1512L109.975 57.3677C110.244 56.9262 110.218 56.3659 109.911 55.947L99.9138 42.3184C99.8308 42.1968 99.722 42.0913 99.5972 42.0018C99.4692 41.9156 99.3283 41.8481 99.1718 41.8101C99.0663 41.7811 98.9956 41.7779 98.8392 41.7715H61.1619C60.9921 41.7811 60.9412 41.7811 60.8357 41.8068C60.6787 41.8449 60.5314 41.9124 60.4033 42.0018C60.2785 42.0913 60.1762 42.1968 60.0899 42.3152L50.0929 55.9444C49.7924 56.3542 49.7602 56.9044 50.0195 57.3458L62.5793 79.0199C61.5588 79.3177 60.7012 79.884 60.1248 80.7384C59.2735 82.0054 59.1712 83.6055 59.8365 85.2438C60.3294 86.4599 59.7664 88.0151 58.5947 88.6424C57.0042 89.4968 56.0539 90.8217 55.9227 92.3736C55.7946 93.9224 56.5082 95.3849 57.9321 96.489C58.9719 97.2985 59.2698 98.9244 58.5755 100.041C57.6283 101.57 57.4649 103.183 58.1244 104.588C58.7865 105.996 60.1371 106.914 61.929 107.164C63.2474 107.349 64.3322 108.614 64.2936 109.926C64.2454 111.391 64.6938 112.655 65.5831 113.571C66.8313 114.851 68.8439 115.19 70.7704 114.422C71.9875 113.932 73.629 114.531 74.2305 115.644L74.2304 115.642ZM99.0341 45.4472L107.338 56.7658L95.2969 76.5829C95.0826 76.0675 94.7976 75.594 94.4103 75.1975C93.1589 73.9112 91.1366 73.5754 89.2166 74.3494C88.0294 74.8294 86.3784 74.2439 85.7703 73.1141C85.5239 72.663 85.2234 72.2853 84.8934 71.9527L92.8519 57.0439C92.8519 57.0406 92.8551 57.0342 92.8583 57.0278L99.0341 45.4472ZM78.1705 72.186L70.4267 57.7023H89.5952L82.6673 70.6912C81.1089 70.3232 79.4192 70.8 78.1711 72.1854L78.1705 72.186ZM96.7314 44.3309L90.9618 55.1432H69.1026L63.2816 44.3309H96.7314ZM60.9714 45.4473L75.9214 73.4052C75.3455 73.4535 74.7599 73.3827 74.2928 73.0951C73.3998 72.5508 72.4462 72.2631 71.5312 72.2631C69.2656 72.2631 67.5026 73.94 67.1474 76.4423C67.0124 77.383 66.286 78.2117 65.2816 78.5765L52.6543 56.7845L60.9714 45.4473ZM67.4289 111.778C66.9297 111.262 66.8402 110.523 66.8563 109.992C66.9297 107.391 64.8817 104.981 62.2898 104.62C61.6464 104.53 60.8048 104.261 60.4465 103.49C60.0913 102.728 60.4143 101.922 60.7534 101.378C62.1297 99.1634 61.5693 96.0561 59.502 94.4533C58.9963 94.0596 58.4043 93.4135 58.475 92.5752C58.5452 91.7336 59.24 91.193 59.8095 90.8887C62.1168 89.6502 63.192 86.6839 62.2064 84.271C62.0114 83.7942 61.7617 82.8856 62.2514 82.1625C62.7153 81.4778 63.6148 81.42 64.4145 81.3369C67.0095 81.3369 69.3201 79.3436 69.6816 76.7994C69.9345 74.9978 71.3906 74.3196 72.9522 75.2765C75.1122 76.6013 78.3603 76.0125 79.9187 74.0315C81.026 72.6204 82.6545 72.7548 83.5187 74.332C84.7283 76.5622 87.8451 77.6662 90.1717 76.7191C90.9587 76.4089 91.7848 76.1689 92.5717 76.9784C93.0678 77.4937 93.1573 78.2362 93.1444 78.7671C93.1283 79.3077 93.2242 79.8391 93.378 80.348C93.3844 80.3737 93.3908 80.3994 93.4005 80.4246C94.0085 82.3221 95.6853 83.858 97.7076 84.1398C98.351 84.2293 99.1926 84.4982 99.5509 85.2696C99.9061 86.0314 99.5831 86.8377 99.2472 87.3813C97.871 89.5959 98.4313 92.7032 100.499 94.306C101.004 94.6997 101.596 95.3458 101.522 96.1906C101.452 97.074 100.655 97.621 100.194 97.8706C97.887 99.1027 96.8085 102.072 97.7879 104.488C97.9861 104.965 98.2357 105.874 97.7461 106.6C97.2854 107.288 96.5236 107.471 95.5861 107.426C92.9911 107.426 90.6805 109.419 90.319 111.963C90.0629 113.765 88.5907 114.43 87.0484 113.486C84.8884 112.164 81.6403 112.747 80.0819 114.728C79.5602 115.39 78.9366 115.755 78.3157 115.755C77.346 115.755 76.7509 114.923 76.4819 114.427C75.5766 112.76 73.7107 111.681 71.7269 111.681C71.0648 111.681 70.4246 111.803 69.8263 112.043C69.0382 112.353 68.2191 112.587 67.429 111.778L67.4289 111.778Z" fill="white"/>
<path d="M96.3831 94.3784C96.3831 85.3414 89.0325 77.9912 80 77.9912C70.9663 77.9912 63.6128 85.3418 63.6128 94.3784C63.6128 103.412 70.9665 110.761 80 110.761C89.0337 110.761 96.3831 103.414 96.3831 94.3784ZM66.1746 94.3784C66.1746 86.7563 72.3761 80.5517 79.9986 80.5517C87.6207 80.5517 93.8199 86.7531 93.8199 94.3784C93.8199 102.001 87.6217 108.202 79.9986 108.202C72.3732 108.202 66.1746 102 66.1746 94.3784Z" fill="white"/>
<path d="M85.2608 103.278C85.4274 103.348 85.5999 103.386 85.7762 103.386C85.7987 103.386 85.8244 103.39 85.8399 103.386C86.5503 103.386 87.1197 102.814 87.1197 102.107C87.1197 101.924 87.0812 101.755 87.0142 101.598L86.5213 96.2186L90.2976 91.9815C90.5981 91.6456 90.6977 91.1721 90.5601 90.7397C90.4224 90.308 90.0672 89.9812 89.6226 89.8821L83.9682 88.6022L81.1042 83.7031C80.8739 83.3093 80.4576 83.0693 80.0033 83.0693C79.4815 83.0886 79.1296 83.3029 78.896 83.6934L75.933 88.6756L70.3905 89.8852C69.9459 89.9811 69.5875 90.3047 69.4466 90.7365C69.3057 91.1682 69.3984 91.6386 69.6995 91.9815L73.5201 96.3368L72.9539 101.988C72.9089 102.439 73.1076 102.878 73.4725 103.146C73.6932 103.31 73.9589 103.393 74.2278 103.393C74.4008 103.393 74.5701 103.357 74.7335 103.29L80.0618 101.002L85.2608 103.278ZM75.7218 100.078L76.1059 96.2314C76.1542 95.7546 76.0004 95.2779 75.6865 94.9227L73.0561 91.921L76.8163 91.1019C77.2898 91.0028 77.7029 90.7082 77.9493 90.2957L79.9909 86.8687L81.927 90.1869C82.167 90.6123 82.5768 90.9198 83.0504 91.0189L86.9418 91.8991L84.3816 94.7695C84.0618 95.1182 83.9016 95.5918 83.937 96.0879L84.3018 100.062L80.7687 98.5135C80.3878 98.3437 79.7669 98.3372 79.3833 98.5071L75.7218 100.078Z" fill="white"/>
</svg>
