<svg width="32" height="32" viewBox="0 0 32 32" fill="none" xmlns="http://www.w3.org/2000/svg">
<g clip-path="url(#clip0_524_2052)">
<path d="M5 27C4.20435 27 3.44129 26.6839 2.87868 26.1213C2.31607 25.5587 2 24.7956 2 24V7H1C0.734784 7 0.48043 7.10536 0.292893 7.29289C0.105357 7.48043 0 7.73478 0 8L0 27C0 27.5304 0.210714 28.0391 0.585786 28.4142C0.960859 28.7893 1.46957 29 2 29H27C27.2652 29 27.5196 28.8946 27.7071 28.7071C27.8946 28.5196 28 28.2652 28 28V27H5Z" fill="white"/>
<path d="M30 3H6C5.46957 3 4.96086 3.21071 4.58579 3.58579C4.21071 3.96086 4 4.46957 4 5V23C4 23.5304 4.21071 24.0391 4.58579 24.4142C4.96086 24.7893 5.46957 25 6 25H30C30.5304 25 31.0391 24.7893 31.4142 24.4142C31.7893 24.0391 32 23.5304 32 23V5C32 4.46957 31.7893 3.96086 31.4142 3.58579C31.0391 3.21071 30.5304 3 30 3ZM22.771 14.421L15.771 18.921C15.6954 18.9697 15.6081 18.9972 15.5182 19.0005C15.4284 19.0038 15.3393 18.9827 15.2604 18.9396C15.1814 18.8966 15.1156 18.833 15.0698 18.7556C15.024 18.6782 14.9999 18.5899 15 18.5V9.5C14.9999 9.41008 15.024 9.32178 15.0698 9.2444C15.1156 9.16703 15.1814 9.10345 15.2604 9.06035C15.3393 9.01725 15.4284 8.99624 15.5182 8.99952C15.6081 9.0028 15.6954 9.03026 15.771 9.079L22.771 13.579C22.8416 13.6242 22.8997 13.6865 22.9399 13.7601C22.9802 13.8336 23.0013 13.9161 23.0013 14C23.0013 14.0839 22.9802 14.1664 22.9399 14.2399C22.8997 14.3135 22.8416 14.3758 22.771 14.421Z" fill="white"/>
</g>
<defs>
<clipPath id="clip0_524_2052">
<rect width="32" height="32" fill="white"/>
</clipPath>
</defs>
</svg>
