<svg width="32" height="32" viewBox="0 0 32 32" fill="none" xmlns="http://www.w3.org/2000/svg">
<path d="M13.586 11.917V17.417C12.8939 17.2345 12.1697 17.2096 11.4667 17.3441C10.7637 17.4787 10.0998 17.7693 9.52404 18.1945C8.94826 18.6197 8.47524 19.1687 8.13982 19.801C7.80441 20.4333 7.61515 21.1328 7.586 21.848C7.54662 22.4638 7.63949 23.0809 7.85836 23.6578C8.07723 24.2347 8.41704 24.7581 8.85496 25.1928C9.29288 25.6275 9.81876 25.9634 10.3973 26.178C10.9758 26.3926 11.5935 26.4809 12.209 26.437C15.625 26.437 16.832 24.037 16.832 21.786V0H22.27C23.195 5.753 26.07 7.088 29.924 7.705V13.217C29.924 13.217 25.352 12.892 22.424 10.684V21.573C22.421 26.5 19.5 32 12.25 32C5.522 32 2.08 26.3 2.08 21.522C2.1229 20.1064 2.46541 18.7159 3.08494 17.4424C3.70447 16.1688 4.58695 15.041 5.67418 14.1334C6.76142 13.2258 8.0287 12.559 9.39246 12.177C10.7562 11.7949 12.1855 11.7063 13.586 11.917Z" fill="white"/>
</svg>
