<svg width="32" height="32" viewBox="0 0 32 32" fill="none" xmlns="http://www.w3.org/2000/svg">
<path d="M16 12C16 13.0609 15.5786 14.0783 14.8284 14.8284C14.0783 15.5786 13.0609 16 12 16C12 16.7911 12.2346 17.5645 12.6741 18.2223C13.1136 18.8801 13.7384 19.3928 14.4693 19.6955C15.2002 19.9983 16.0044 20.0775 16.7804 19.9231C17.5563 19.7688 18.269 19.3878 18.8284 18.8284C19.3878 18.269 19.7688 17.5563 19.9231 16.7804C20.0775 16.0044 19.9983 15.2002 19.6955 14.4693C19.3928 13.7384 18.8801 13.1136 18.2223 12.6741C17.5645 12.2346 16.7911 12 16 12Z" fill="white"/>
<path d="M24 1H8C6.14413 1.00212 4.36489 1.7403 3.05259 3.05259C1.7403 4.36489 1.00212 6.14413 1 8V24C1.00212 25.8559 1.7403 27.6351 3.05259 28.9474C4.36489 30.2597 6.14413 30.9979 8 31H24C25.8559 30.9979 27.6351 30.2597 28.9474 28.9474C30.2597 27.6351 30.9979 25.8559 31 24V8C30.9979 6.14413 30.2597 4.36489 28.9474 3.05259C27.6351 1.7403 25.8559 1.00212 24 1ZM7.5 9C7.20333 9 6.91332 8.91203 6.66664 8.7472C6.41997 8.58238 6.22771 8.34811 6.11418 8.07403C6.00065 7.79994 5.97094 7.49834 6.02882 7.20736C6.0867 6.91639 6.22956 6.64912 6.43934 6.43934C6.64912 6.22956 6.91639 6.0867 7.20736 6.02882C7.49834 5.97094 7.79994 6.00065 8.07403 6.11418C8.34811 6.22771 8.58238 6.41997 8.7472 6.66664C8.91203 6.91332 9 7.20333 9 7.5C9 7.89782 8.84196 8.27936 8.56066 8.56066C8.27936 8.84196 7.89782 9 7.5 9ZM16 23C14.6155 23 13.2622 22.5895 12.111 21.8203C10.9599 21.0511 10.0627 19.9579 9.53284 18.6788C9.00303 17.3997 8.86441 15.9922 9.1345 14.6344C9.4046 13.2765 10.0713 12.0292 11.0503 11.0503C12.0292 10.0713 13.2765 9.4046 14.6344 9.1345C15.9922 8.86441 17.3997 9.00303 18.6788 9.53284C19.9579 10.0627 21.0511 10.9599 21.8203 12.111C22.5895 13.2622 23 14.6155 23 16C23 17.8565 22.2625 19.637 20.9497 20.9497C19.637 22.2625 17.8565 23 16 23Z" fill="white"/>
</svg>
