<svg width="32" height="32" viewBox="0 0 32 32" fill="none" xmlns="http://www.w3.org/2000/svg">
<path d="M26.3977 15.9381C26.3899 15.8349 26.3619 15.7349 26.3158 15.642L23.1158 9.242C23.0204 9.05219 22.854 8.90754 22.6533 8.84129L17.9996 7.2897L16.6785 5.1756C16.4605 4.82721 16.0128 4.6999 15.6425 4.88435L9.24245 8.08435C9.11817 8.14685 9.01192 8.2406 8.9346 8.35631L5.7346 13.1563C5.65656 13.2733 5.61049 13.4094 5.60192 13.5499L4.80192 26.3499C4.78781 26.5702 4.86602 26.7867 5.01763 26.9476C5.16835 27.1084 5.37924 27.1999 5.60031 27.1999H26.4003C26.623 27.1999 26.8362 27.1068 26.9871 26.9436C27.1387 26.7795 27.2153 26.5608 27.198 26.3381L26.3977 15.9381ZM11.2393 21.0147L13.3268 18.2311L16.0002 16.8943L18.6736 18.2311L20.7611 21.0147L20.1061 25.5998H11.8944L11.2393 21.0147ZM21.723 25.5998L22.3925 20.9132C22.4221 20.703 22.3675 20.4898 22.2402 20.3201L19.8402 17.1201C19.7659 17.0201 19.6691 16.9396 19.5582 16.8842L16.3582 15.2842C16.1332 15.1717 15.8675 15.1717 15.6425 15.2842L12.4425 16.8842C12.3316 16.9398 12.2346 17.0201 12.1605 17.1201L9.76053 20.3201C9.63321 20.4896 9.57857 20.703 9.60821 20.9132L10.2777 25.5998H6.45196L7.18554 13.8645L10.1481 9.42L15.7074 6.64034L19.1222 12.1046L18.4416 14.1467C18.3018 14.5662 18.5284 15.0194 18.9472 15.1585C19.3699 15.2992 19.8191 15.0717 19.959 14.653L20.759 12.253C20.8347 12.0264 20.8051 11.7779 20.6784 11.5757L19.3315 9.42014L21.8331 10.2537L24.8144 16.2176L25.5361 25.5995L21.723 25.5998Z" fill="white"/>
</svg>
