<svg width="32" height="32" viewBox="0 0 32 32" fill="none" xmlns="http://www.w3.org/2000/svg">
<path d="M19.638 26.568C20.0079 24.8893 20.195 23.1756 20.196 21.4566C20.2013 16.2642 18.4969 11.2145 15.346 7.08731L15.0507 7.33331C16.2484 10.2153 16.8642 13.3057 16.8627 16.4266C16.8661 19.7459 16.1713 23.0287 14.8234 26.062" stroke="white" stroke-width="1.5" stroke-miterlimit="10"/>
<path d="M25.3374 30.6667C24.2466 29.2223 22.8357 28.0506 21.2155 27.2439C19.5953 26.4371 17.81 26.0172 16.0001 26.0172C14.1901 26.0172 12.4048 26.4371 10.7846 27.2439C9.16441 28.0506 7.75346 29.2223 6.66272 30.6667H25.3374Z" stroke="white" stroke-width="1.5" stroke-miterlimit="10" stroke-linecap="square"/>
<path d="M7.33341 18L15.2727 7.16064C9.17141 7.99998 4.66674 10.6666 7.33341 18Z" stroke="white" stroke-width="1.5" stroke-miterlimit="10" stroke-linecap="square"/>
<path d="M28 14.6667L15.2727 7.16067C15.2727 7.16067 27.3334 3.33333 28 14.6667Z" stroke="white" stroke-width="1.5" stroke-miterlimit="10" stroke-linecap="square"/>
<path d="M15.2727 7.16065L5.33337 5.99399C5.33337 5.99399 12 -0.707348 15.2727 7.16065Z" stroke="white" stroke-width="1.5" stroke-miterlimit="10" stroke-linecap="square"/>
<path d="M15.2727 7.16065L24.6667 2.66665C24.6667 2.66665 16 -2.23335 15.2727 7.16065Z" stroke="white" stroke-width="1.5" stroke-miterlimit="10" stroke-linecap="square"/>
</svg>
